<svg xmlns="http://www.w3.org/2000/svg" width="55.07" height="52.776" viewBox="0 0 55.07 52.776">
  <defs>
    <style>
      .cls-1 {
        fill: #1296db;
      }
    </style>
  </defs>
  <g id="组_5" data-name="组 5" transform="translate(-532 -131)">
    <path id="路径_7" data-name="路径 7" class="cls-1" d="M587.07,167.025V141.1c0-5.507-4.819-10.1-10.555-10.1h-33.96C536.819,131,532,135.589,532,141.1V173.68c0,5.507,4.819,10.1,10.555,10.1h33.73c5.278,0,9.637-3.671,10.326-8.261-2.754-1.147-14.915-6.2-21.34-9.178-4.819,5.507-9.867,8.949-17.439,8.949s-12.621-4.589-12.161-10.1c.459-3.671,2.983-9.408,14.227-8.49,5.966.459,8.719,1.606,13.538,3.212a38.849,38.849,0,0,0,2.983-7.113h-21.11v-2.065h10.555v-3.671h-12.85v-2.295h12.85V139.49a1.224,1.224,0,0,1,1.147-.918h5.277v6.2h13.768v2.295H562.289v3.671h11.244a33.849,33.849,0,0,1-4.589,11.014c3.212.918,18.127,5.277,18.127,5.277Zm-39.7,4.819c-8.031,0-9.408-4.819-8.949-6.884s2.753-4.589,7.113-4.589c5.048,0,9.637,1.377,15.144,3.9-3.671,4.589-8.49,7.572-13.309,7.572Zm0,0"/>
  </g>
</svg>
