<svg xmlns="http://www.w3.org/2000/svg" width="68.578" height="46.654" viewBox="0 0 68.578 46.654">
  <defs>
    <style>
      .cls-1 {
        fill: #394bee;
      }

      .cls-2 {
        fill: #ff3d00;
      }
    </style>
  </defs>
  <g id="组_27" data-name="组 27" transform="translate(-521.002 -183.02)">
    <path id="路径_18" data-name="路径 18" class="cls-1" d="M3473.849-380.607l11.115-11.115a3.888,3.888,0,0,0,0-5.5h0a3.888,3.888,0,0,0-5.5,0l-13.877,13.877a3.887,3.887,0,0,0,0,5.5h0c.089.089.182.173.277.252l13.6,13.6a3.888,3.888,0,0,0,5.5,0h0a3.888,3.888,0,0,0,0-5.5Z" transform="translate(-2896.523 586.962)"/>
    <path id="路径_20" data-name="路径 20" class="cls-2" d="M3083.006-438.994a3.872,3.872,0,0,0-.971-2.569l.409.41c-.2-.212-.4-.423-.6-.63a23.327,23.327,0,0,0-32.99,0,23.328,23.328,0,0,0,0,32.99,23.326,23.326,0,0,0,32.771.213c-.032.027-.066.052-.1.077a3.88,3.88,0,0,0,1.483-3.053,3.888,3.888,0,0,0-3.888-3.888,3.872,3.872,0,0,0-2.58.98l.589-.589-.039-.039q-.356.41-.745.8a15.552,15.552,0,0,1-21.993,0,15.552,15.552,0,0,1,0-21.993,15.551,15.551,0,0,1,21.842-.148l-.044-.055a3.879,3.879,0,0,0,2.971,1.381A3.888,3.888,0,0,0,3083.006-438.994Z" transform="translate(-2521.016 631.635)"/>
  </g>
</svg>
