<svg xmlns="http://www.w3.org/2000/svg" xmlns:xlink="http://www.w3.org/1999/xlink" width="54.178" height="54.236" viewBox="0 0 54.178 54.236">
  <defs>
    <style>
      .cls-1 {
        fill: #ff4e4e;
      }

      .cls-2 {
        clip-path: url(#clip-path);
      }
    </style>
    <clipPath id="clip-path">
      <rect id="矩形_12" data-name="矩形 12" class="cls-1" width="54.178" height="54.236" transform="translate(0 0)"/>
    </clipPath>
  </defs>
  <g id="组_29" data-name="组 29" transform="translate(-781.856 -77.957)">
    <g id="组_28" data-name="组 28" class="cls-2" transform="translate(781.856 77.957)">
      <path id="路径_63" data-name="路径 63" class="cls-1" d="M804.319,78.477H785.086a3.366,3.366,0,0,0-3.35,3.35v19.126a3.391,3.391,0,0,0,3.35,3.458h19.126a3.367,3.367,0,0,0,3.35-3.35V81.826A3.209,3.209,0,0,0,804.319,78.477Zm-4.214,16.965a1.431,1.431,0,0,1-1.4,1.4h-8a1.43,1.43,0,0,1-1.4-1.4v-8a1.43,1.43,0,0,1,1.4-1.4h8a1.43,1.43,0,0,1,1.4,1.4Z" transform="translate(-781.744 -78.443)"/>
      <path id="路径_64" data-name="路径 64" class="cls-1" d="M1227.406,509.933h-1.584c-1.372,0-2.428,1.478-2.428,3.273v18.688c0,1.795,1.056,3.273,2.428,3.273h1.584c1.267,0,2.428-1.478,2.428-3.273V513.206c-.105-1.795-1.161-3.273-2.428-3.273Z" transform="translate(-1194.216 -481.387)"/>
      <path id="路径_65" data-name="路径 65" class="cls-1" d="M804.319,506.244H785.086a3.367,3.367,0,0,0-3.35,3.35V528.72a3.391,3.391,0,0,0,3.35,3.458h19.126a3.367,3.367,0,0,0,3.35-3.35V509.594A3.209,3.209,0,0,0,804.319,506.244Zm-4.214,16.965a1.43,1.43,0,0,1-1.4,1.4h-8a1.43,1.43,0,0,1-1.4-1.4v-8a1.43,1.43,0,0,1,1.4-1.4h8a1.43,1.43,0,0,1,1.4,1.4Z" transform="translate(-781.744 -477.941)"/>
      <path id="路径_66" data-name="路径 66" class="cls-1" d="M1360.456,701.661h-1.584c-1.373,0-2.428.739-2.428,1.689v9.4c0,.95,1.056,1.689,2.428,1.689h1.584c1.267,0,2.429-.739,2.429-1.689v-9.4a2.275,2.275,0,0,0-2.429-1.689Z" transform="translate(-1318.473 -660.445)"/>
      <path id="路径_67" data-name="路径 67" class="cls-1" d="M1360.456,509.933h-1.584c-1.373,0-2.428.634-2.428,1.373v7.813c0,.739,1.056,1.372,2.428,1.372h1.584c1.267,0,2.429-.633,2.429-1.372v-7.813c-.106-.739-1.161-1.373-2.429-1.373Z" transform="translate(-1318.473 -481.387)"/>
      <path id="路径_68" data-name="路径 68" class="cls-1" d="M1229.452,78.477h-19.234a3.367,3.367,0,0,0-3.35,3.35v19.126a3.367,3.367,0,0,0,3.35,3.35h19.126a3.367,3.367,0,0,0,3.35-3.35V81.826A3.209,3.209,0,0,0,1229.452,78.477Zm-4.214,16.965a1.43,1.43,0,0,1-1.4,1.4h-8a1.43,1.43,0,0,1-1.4-1.4v-8a1.43,1.43,0,0,1,1.4-1.4h8a1.43,1.43,0,0,1,1.4,1.4Z" transform="translate(-1178.783 -78.443)"/>
      <path id="路径_69" data-name="路径 69" class="cls-1" d="M1493.159,509.933h-1.584c-1.372,0-2.428,1.478-2.428,3.273v18.688c0,1.795,1.056,3.273,2.428,3.273h1.584c1.267,0,2.428-1.478,2.428-3.273V513.206c-.105-1.795-1.161-3.273-2.428-3.273Z" transform="translate(-1442.407 -481.387)"/>
      <path id="路径_70" data-name="路径 70" class="cls-1" d="M1563.33,503.61" transform="translate(-1511.688 -475.481)"/>
    </g>
  </g>
</svg>
