<svg xmlns="http://www.w3.org/2000/svg" width="40.005" height="39.94" viewBox="0 0 40.005 39.94">
  <defs>
    <style>
      .cls-1 {
        fill: #ff8827;
      }

      .cls-2 {
        fill: #1c83f4;
      }

      .cls-3 {
        fill: #040000;
      }
    </style>
  </defs>
  <g id="组_225" data-name="组 225" transform="translate(-661.993 -286)">
    <path id="路径_844" data-name="路径 844" class="cls-1" d="M831.88,432.584a2.05,2.05,0,1,0,2-2.5,2.291,2.291,0,0,0-2,2.5Zm0,0" transform="translate(-157.885 -131.852)"/>
    <path id="路径_845" data-name="路径 845" class="cls-1" d="M1023.8,432.584a2.05,2.05,0,1,0,2-2.5,2.29,2.29,0,0,0-2,2.5Zm0,0" transform="translate(-337.808 -131.852)"/>
    <path id="路径_846" data-name="路径 846" class="cls-1" d="M839.856,611.809a13.17,13.17,0,0,1-7.2-2.167,2,2,0,0,1,2.336-3.241,9.049,9.049,0,0,0,9.788-.075,2,2,0,1,1,2.106,3.4,13.241,13.241,0,0,1-7.032,2.082Z" transform="translate(-157.838 -296.81)"/>
    <path id="路径_847" data-name="路径 847" class="cls-2" d="M641.88,249.068a2,2,0,0,1-2-2v-5.453c0-4.15,2.736-7.531,6.1-7.531h6.9a2,2,0,1,1,0,4h-6.9c-.99,0-2.1,1.513-2.1,3.536v5.453a2,2,0,0,1-2,2Z" transform="translate(22.112 51.913)"/>
    <path id="路径_848" data-name="路径 848" class="cls-2" d="M652.883,648.985h-6.9c-3.366,0-6.1-3.376-6.1-7.531v-5.448a2,2,0,0,1,4,0v5.453c0,2.022,1.11,3.536,2.1,3.536h6.9a1.995,1.995,0,1,1,0,3.99Z" transform="translate(22.112 -323.045)"/>
    <path id="路径_849" data-name="路径 849" class="cls-2" d="M1052.8,249.068a2,2,0,0,1-2-2v-5.453c0-2.023-1.12-3.536-2.12-3.536H1041.8a2,2,0,1,1,0-4h6.882c3.376,0,6.122,3.376,6.122,7.531v5.453a2.006,2.006,0,0,1-2.006,2Z" transform="translate(-352.808 51.913)"/>
    <path id="路径_850" data-name="路径 850" class="cls-2" d="M1048.684,648.985H1041.8a2,2,0,1,1,0-3.995h6.882c1,0,2.121-1.513,2.121-3.536v-5.448a2,2,0,0,1,4,0v5.453c-.005,4.15-2.751,7.526-6.122,7.526Z" transform="translate(-352.808 -323.045)"/>
    <path id="路径_851" data-name="路径 851" class="cls-3" d="M1181.88,873.927" transform="translate(-486.004 -547.987)"/>
  </g>
</svg>
