<svg xmlns="http://www.w3.org/2000/svg" width="40" height="40" viewBox="0 0 40 40">
  <defs>
    <style>
      .cls-1 {
        fill: #1c83f4;
      }

      .cls-2 {
        fill: #ff8827;
      }
    </style>
  </defs>
  <g id="组_226" data-name="组 226" transform="translate(-789.666 -285.587)">
    <path id="路径_842" data-name="路径 842" class="cls-1" d="M646.206,232h-5.1a1.779,1.779,0,0,1,0-3.559h5.1a1.231,1.231,0,0,0,1.227-1.227V196.786a1.231,1.231,0,0,0-1.227-1.227H615.794a1.231,1.231,0,0,0-1.227,1.227V201.3a1.779,1.779,0,1,1-3.558,0v-4.514A4.788,4.788,0,0,1,615.794,192h30.421A4.788,4.788,0,0,1,651,196.786v30.429A4.8,4.8,0,0,1,646.206,232Zm-22.734,0h-9.728A2.748,2.748,0,0,1,611,229.256v-9.721a2.748,2.748,0,0,1,2.744-2.744h9.728a2.748,2.748,0,0,1,2.743,2.744v9.731A2.746,2.746,0,0,1,623.472,232Zm-8.914-3.559h8.1v-8.092h-8.1Zm0,0" transform="translate(178.665 93.587)"/>
    <path id="路径_843" data-name="路径 843" class="cls-2" d="M634.154,447.412h-4.015a1.778,1.778,0,1,1,0-3.556h4.015a.148.148,0,0,0,.15-.15V424.268a.148.148,0,0,0-.15-.15H614.706a.148.148,0,0,0-.15.15v3.7a1.778,1.778,0,1,1-3.556,0v-3.7a3.708,3.708,0,0,1,3.706-3.706h19.447a3.709,3.709,0,0,1,3.706,3.706v19.447a3.713,3.713,0,0,1-3.706,3.7Zm0,0" transform="translate(178.665 -121.825)"/>
  </g>
</svg>
