<svg xmlns="http://www.w3.org/2000/svg" xmlns:xlink="http://www.w3.org/1999/xlink" width="57.158" height="56.235" viewBox="0 0 57.158 56.235">
  <defs>
    <style>
      .cls-1 {
        fill: none;
      }

      .cls-2 {
        clip-path: url(#clip-path);
      }

      .cls-3 {
        fill: #f60;
      }
    </style>
    <clipPath id="clip-path">
      <rect id="矩形_13" data-name="矩形 13" class="cls-1" width="57.158" height="56.235"/>
    </clipPath>
  </defs>
  <g id="组_33" data-name="组 33" transform="translate(-551 -138)">
    <g id="组_32" data-name="组 32" transform="translate(551 138)">
      <g id="组_31" data-name="组 31" class="cls-2" transform="translate(0 0)">
        <path id="路径_71" data-name="路径 71" class="cls-3" d="M602.064,179.8c3.8,1.5,6.062,3.378,6.062,5.427,0,4.86-12.789,8.8-28.566,8.8S551,190.094,551,185.231c0-2.05,2.261-3.93,6.06-5.427a2.676,2.676,0,0,0-1.408,2.027c0,3.3,10.705,5.979,23.909,5.979s23.912-2.676,23.912-5.982a2.665,2.665,0,0,0-1.408-2.024ZM565.541,139.78a5.191,5.191,0,1,1-5.191,5.191,5.191,5.191,0,0,1,5.191-5.191Zm27.965,0a5.19,5.19,0,1,0,5.192,5.19,5.19,5.19,0,0,0-5.192-5.19Zm-5.13,29.86v13.688h3.664l1.46-9.595,1.465,9.595h3.984V168.168a4.941,4.941,0,0,0,2.665-4.377v-7.754a4.942,4.942,0,0,0-4.929-4.929h-6.068a4.966,4.966,0,0,0-1.136.132,7.842,7.842,0,0,1,1.282,4.311v8.441a7.9,7.9,0,0,1-2.387,5.648Zm-8.73-31.781a5.65,5.65,0,1,1-5.523,5.649,5.65,5.65,0,0,1,5.523-5.649Zm5.585,30.9a5.381,5.381,0,0,0,2.928-4.772v-8.441a5.381,5.381,0,0,0-5.364-5.364h-6.6a5.381,5.381,0,0,0-5.364,5.364v8.441a5.381,5.381,0,0,0,2.9,4.76v16.5h4.336l1.591-10.439,1.592,10.439h3.981Zm-14.561.876a7.9,7.9,0,0,1-2.387-5.648v-8.441a7.823,7.823,0,0,1,1.288-4.311,4.913,4.913,0,0,0-1.142-.132h-6.065a4.942,4.942,0,0,0-4.929,4.929v7.757a4.946,4.946,0,0,0,2.665,4.374v15.159h3.984l1.466-9.595,1.46,9.595h3.661Zm0,0" transform="translate(-551 -137.867)"/>
      </g>
    </g>
  </g>
</svg>
