<svg xmlns="http://www.w3.org/2000/svg" xmlns:xlink="http://www.w3.org/1999/xlink" width="31.405" height="29.766" viewBox="0 0 31.405 29.766">
  <defs>
    <style>
      .cls-1 {
        fill: none;
      }

      .cls-2 {
        clip-path: url(#clip-path);
      }
    </style>
    <clipPath id="clip-path">
      <rect id="矩形_10" data-name="矩形 10" class="cls-1" width="31.405" height="29.766"/>
    </clipPath>
  </defs>
  <g id="组_21" data-name="组 21" transform="translate(-672 -268)">
    <g id="组_20" data-name="组 20" transform="translate(672 268)">
      <g id="组_19" data-name="组 19" class="cls-2" transform="translate(0 0)">
        <path id="路径_59" data-name="路径 59" d="M703.383,311.414c0-2.273-2.338-4.3-5.984-5.6a14.807,14.807,0,0,0,.245-3.759,4.038,4.038,0,0,1-1.7.9,12.415,12.415,0,0,1-.219,2.339,28.9,28.9,0,0,0-4.047-.774,28.467,28.467,0,0,0-2.693-3.121,12.666,12.666,0,0,1,2.006-1.412,4.14,4.14,0,0,1-.122-.992,4.02,4.02,0,0,1,.114-.953A14.55,14.55,0,0,0,687.7,300.2c-2.955-2.5-5.879-3.519-7.846-2.382s-2.553,4.174-1.862,7.986c-3.646,1.307-5.988,3.335-5.988,5.608s2.338,4.3,5.984,5.6c-.691,3.812-.109,6.849,1.862,7.986s4.891.123,7.846-2.382c2.955,2.5,5.879,3.519,7.846,2.382s2.553-4.174,1.862-7.986c3.646-1.307,5.984-3.331,5.984-5.6ZM695.332,307q-.288,1.062-.717,2.2c-.236-.45-.481-.9-.743-1.355s-.529-.892-.8-1.32c.8.131,1.552.289,2.264.477Zm-.717,6.618q.426,1.134.717,2.2c-.712.184-1.469.345-2.264.476.275-.428.542-.87.8-1.32s.507-.9.743-1.355Zm-2.321.45q-.774,1.338-1.609,2.531c-.966.083-1.967.127-2.994.127s-2.028-.044-2.994-.127c-.555-.791-1.093-1.639-1.608-2.531q-.75-1.3-1.385-2.658.616-1.318,1.385-2.658t1.608-2.531c.962-.083,1.967-.127,2.994-.127s2.028.044,2.994.127c.555.791,1.093,1.639,1.609,2.531s.975,1.779,1.386,2.658c-.411.874-.87,1.766-1.386,2.658Zm-4.6,6.163q-.773-.787-1.547-1.722c.507.022,1.023.035,1.547.035s1.036-.013,1.547-.035c-.512.621-1.032,1.2-1.547,1.722Zm-6.176-5.254c.262.45.529.892.8,1.32-.8-.131-1.556-.293-2.264-.477.2-.708.433-1.442.717-2.2.236.45.485.9.743,1.355Zm-.743-5.779q-.426-1.134-.717-2.2c.712-.184,1.469-.345,2.264-.477-.275.428-.542.87-.8,1.32s-.507.9-.743,1.355Zm8.467-4.887c-.507-.022-1.023-.035-1.547-.035s-1.036.013-1.543.035c.511-.625,1.031-1.2,1.547-1.722.516.52,1.031,1.1,1.543,1.722Zm-8.392-4.764c1.333-.769,3.37,0,5.555,1.84a28.039,28.039,0,0,0-2.693,3.121,27.733,27.733,0,0,0-4.048.774c-.507-2.815-.148-4.965,1.185-5.735ZM674,311.414c0-1.539,1.683-2.92,4.371-3.89a28.352,28.352,0,0,0,1.355,3.89,28.348,28.348,0,0,0-1.355,3.89c-2.688-.97-4.371-2.356-4.371-3.89Zm6.85,11.858c-1.333-.769-1.687-2.92-1.185-5.735a28.918,28.918,0,0,0,4.048.774,28.426,28.426,0,0,0,2.693,3.121c-2.185,1.845-4.227,2.61-5.555,1.84Zm13.694,0c-1.333.769-3.37,0-5.555-1.84a28.049,28.049,0,0,0,2.693-3.121,27.672,27.672,0,0,0,4.047-.774c.5,2.819.149,4.97-1.185,5.735Zm2.474-7.968a28.284,28.284,0,0,0-1.355-3.89,28.288,28.288,0,0,0,1.355-3.89c2.688.97,4.375,2.356,4.375,3.89s-1.683,2.92-4.375,3.89Zm0,0" transform="translate(-672 -295.752)"/>
      </g>
    </g>
    <path id="路径_60" data-name="路径 60" d="M1032.879,271.388a3.23,3.23,0,1,0,3.23-3.23,3.231,3.231,0,0,0-3.23,3.23Zm0,0" transform="translate(-341.162 -0.149)"/>
  </g>
</svg>
