<svg xmlns="http://www.w3.org/2000/svg" xmlns:xlink="http://www.w3.org/1999/xlink" width="25.29" height="32.235" viewBox="0 0 25.29 32.235">
  <defs>
    <style>
      .cls-1 {
        fill: none;
      }

      .cls-2 {
        clip-path: url(#clip-path);
      }
    </style>
    <clipPath id="clip-path">
      <rect id="矩形_11" data-name="矩形 11" class="cls-1" width="25.29" height="32.235"/>
    </clipPath>
  </defs>
  <g id="组_24" data-name="组 24" transform="translate(-638 -130)">
    <g id="组_23" data-name="组 23" transform="translate(638 130)">
      <g id="组_22" data-name="组 22" class="cls-2" transform="translate(0 0)">
        <path id="路径_61" data-name="路径 61" d="M650.486,162.7a12.377,12.377,0,0,1-5.03-1.025,12.738,12.738,0,0,1-4.037-2.728,12.016,12.016,0,0,1-3.535-8.767,13.567,13.567,0,0,1,2.444-7.387L647.35,132.1a3.9,3.9,0,0,1,6.246-.037l7.639,11.736a18.5,18.5,0,0,1,1.353,3.029,9.754,9.754,0,0,1,.573,3.376A12.512,12.512,0,0,1,659.5,159a12.768,12.768,0,0,1-9.011,3.694Zm0-29.949a1.522,1.522,0,0,0-1.241.66l-7,10.659a11.2,11.2,0,0,0-2.059,6.177,9.713,9.713,0,0,0,2.859,7.07,10.468,10.468,0,0,0,3.318,2.242,10.694,10.694,0,0,0,11.511-2.182,10.2,10.2,0,0,0,2.992-7.164,7.539,7.539,0,0,0-.438-2.6.079.079,0,0,1-.009-.023,16.066,16.066,0,0,0-1.154-2.6L651.7,133.367a1.5,1.5,0,0,0-1.214-.62Zm0,0" transform="translate(-637.885 -130.5)"/>
      </g>
    </g>
    <path id="路径_62" data-name="路径 62" d="M805.154,534.843h-.144a6.41,6.41,0,0,1-6.192-6.393,6.188,6.188,0,0,1,.09-1.234,1.341,1.341,0,0,1,1.832-.839,2.275,2.275,0,0,0,1.095.251,2.029,2.029,0,0,0,1.528-.628,6.4,6.4,0,0,1,2.983-1.432,6.832,6.832,0,0,1,3.892.612l0,.006a1.33,1.33,0,0,1,.671.691h0a6.791,6.791,0,0,1,.547,2.577,6.465,6.465,0,0,1-1.941,4.587,6.211,6.211,0,0,1-4.363,1.8Zm-4.015-5.961a4.091,4.091,0,0,0,3.925,3.655,3.738,3.738,0,0,0,2.846-1.15,4.141,4.141,0,0,0,1.25-2.939,4.034,4.034,0,0,0-.236-1.32,3.73,3.73,0,0,0-4.141.678,4.28,4.28,0,0,1-2.949,1.121,5.1,5.1,0,0,1-.7-.047Zm0,0" transform="translate(-154.502 -378.982)"/>
  </g>
</svg>
