<svg xmlns="http://www.w3.org/2000/svg" xmlns:xlink="http://www.w3.org/1999/xlink" width="28.461" height="28.466" viewBox="0 0 28.461 28.466">
  <defs>
    <style>
      .cls-1 {
        fill: none;
      }

      .cls-2 {
        clip-path: url(#clip-path);
      }
    </style>
    <clipPath id="clip-path">
      <rect id="矩形_8" data-name="矩形 8" class="cls-1" width="28.461" height="28.466"/>
    </clipPath>
  </defs>
  <g id="组_15" data-name="组 15" transform="translate(-628 -208)">
    <g id="组_14" data-name="组 14" transform="translate(628 208)">
      <g id="组_13" data-name="组 13" class="cls-2" transform="translate(0 0)">
        <path id="路径_54" data-name="路径 54" d="M652.573,208H631.653a3.784,3.784,0,0,0-3.773,3.773v20.921a3.784,3.784,0,0,0,3.773,3.773h20.921a3.784,3.784,0,0,0,3.773-3.773V211.773A3.784,3.784,0,0,0,652.573,208Zm1.886,24.693a1.9,1.9,0,0,1-1.886,1.886H631.653a1.9,1.9,0,0,1-1.886-1.886V211.773a1.9,1.9,0,0,1,1.886-1.886h20.921a1.9,1.9,0,0,1,1.886,1.886Zm0,0" transform="translate(-627.885 -208)"/>
      </g>
    </g>
    <path id="路径_55" data-name="路径 55" d="M738.782,368.757h-3.039l-1.138-3.513a.943.943,0,0,0-.9-.652h0a.944.944,0,0,0-.9.659l-1.858,5.882-3.315-10.688a.943.943,0,0,0-1.786-.045l-2.678,7.322h-3.149a.943.943,0,0,0,0,1.886h3.809a.943.943,0,0,0,.886-.619l1.944-5.318,3.38,10.9a.943.943,0,0,0,.9.664h0a.943.943,0,0,0,.9-.659l1.878-5.945.441,1.361a.943.943,0,0,0,.9.652h3.725a.943.943,0,0,0,0-1.886Zm0,0" transform="translate(-87.174 -145.275)"/>
  </g>
</svg>
