<svg xmlns="http://www.w3.org/2000/svg" xmlns:xlink="http://www.w3.org/1999/xlink" width="28.923" height="35.09" viewBox="0 0 28.923 35.09">
  <defs>
    <style>
      .cls-1 {
        fill: none;
      }

      .cls-2 {
        clip-path: url(#clip-path);
      }
    </style>
    <clipPath id="clip-path">
      <rect id="矩形_9" data-name="矩形 9" class="cls-1" width="28.923" height="35.09"/>
    </clipPath>
  </defs>
  <g id="组_18" data-name="组 18" transform="translate(-664 -182)">
    <g id="组_17" data-name="组 17" transform="translate(664 182)">
      <g id="组_16" data-name="组 16" class="cls-2" transform="translate(0 0)">
        <path id="路径_56" data-name="路径 56" d="M692.9,188.543v15.8a6.818,6.818,0,0,1-2.416,4.973l-9.343,7.1a4.616,4.616,0,0,1-5.38,0l-9.347-7.1A6.824,6.824,0,0,1,664,204.347v-15.8a4.823,4.823,0,0,1,3.086-4.448c.172-.067.446-.168.822-.29.674-.219,1.449-.435,2.322-.638a37.325,37.325,0,0,1,16.439,0c.873.2,1.649.419,2.322.638.38.125.662.223.83.294a4.858,4.858,0,0,1,3.082,4.444Zm-26.409-.129V204.4a4.315,4.315,0,0,0,1.394,2.913l9.449,7.178a2.021,2.021,0,0,0,2.228,0l9.449-7.174a4.281,4.281,0,0,0,1.394-2.913V188.414a2.293,2.293,0,0,0-1.328-1.989l-.086-.031-.161-.059q-.27-.1-.54-.188c-.611-.2-1.324-.4-2.13-.584a35.125,35.125,0,0,0-15.428,0c-.807.188-1.52.384-2.13.584-.18.059-.364.121-.54.188l-.16.059a.53.53,0,0,1-.1.035,2.266,2.266,0,0,0-1.308,1.986Zm0,0" transform="translate(-664 -182.238)"/>
      </g>
    </g>
    <path id="路径_57" data-name="路径 57" d="M917.7,407.348l-7.64,7.644a1.254,1.254,0,0,1-1.774-1.774l7.644-7.644a1.253,1.253,0,1,1,1.77,1.774Zm0,0" transform="translate(-231.981 -212.284)"/>
    <path id="路径_58" data-name="路径 58" d="M823.906,482.25l-4.182-4.182a1.254,1.254,0,1,1,1.774-1.774l4.182,4.186a1.253,1.253,0,1,1-1.774,1.77Zm0,0" transform="translate(-147.755 -279.542)"/>
  </g>
</svg>
