<svg xmlns="http://www.w3.org/2000/svg" xmlns:xlink="http://www.w3.org/1999/xlink" width="59.563" height="56.155" viewBox="0 0 59.563 56.155">
  <defs>
    <style>
      .cls-1 {
        fill: #3d1bc9;
      }

      .cls-2 {
        clip-path: url(#clip-path);
      }
    </style>
    <clipPath id="clip-path">
      <rect id="矩形_14" data-name="矩形 14" class="cls-1" width="59.563" height="56.155"/>
    </clipPath>
  </defs>
  <g id="组_37" data-name="组 37" transform="translate(-566 -169)">
    <g id="组_36" data-name="组 36" transform="translate(566 169)">
      <g id="组_35" data-name="组 35" class="cls-2" transform="translate(0 0)">
        <path id="路径_72" data-name="路径 72" class="cls-1" d="M606.7,219.41H604.1v-4.822H587.68v4.822H585.07a5.8,5.8,0,0,0-5.78,5.648h33.2a5.848,5.848,0,0,0-5.78-5.648Zm12.882-50.437H571.66a5.786,5.786,0,0,0-5.78,5.78v31.18a5.786,5.786,0,0,0,5.78,5.78h47.992a5.787,5.787,0,0,0,5.78-5.78v-31.18a5.822,5.822,0,0,0-5.846-5.78Zm-22.592,18.6v5.549h9.81a1.123,1.123,0,1,1,0,2.246h-9.81v8.323a1.123,1.123,0,0,1-2.246,0V195.4h-9.81a1.123,1.123,0,0,1,0-2.246h9.81v-5.582h-9.81a1.123,1.123,0,0,1,0-2.246h9.414L585.4,176.9a1.141,1.141,0,0,1-.132-1.586,1.108,1.108,0,0,1,1.586-.1l8.984,8.456,8.984-8.456a1.138,1.138,0,0,1,1.586.1,1.111,1.111,0,0,1-.132,1.586l-8.951,8.423h9.414a1.123,1.123,0,1,1,0,2.246Zm0,0" transform="translate(-565.889 -168.975)"/>
      </g>
    </g>
  </g>
</svg>
