<svg xmlns="http://www.w3.org/2000/svg" xmlns:xlink="http://www.w3.org/1999/xlink" width="60.52" height="53.497" viewBox="0 0 60.52 53.497">
  <defs>
    <style>
      .cls-1 {
        fill: none;
      }

      .cls-2 {
        clip-path: url(#clip-path);
      }

      .cls-3 {
        fill: #09bb07;
      }
    </style>
    <clipPath id="clip-path">
      <rect id="矩形_7" data-name="矩形 7" class="cls-1" width="60.52" height="53.497"/>
    </clipPath>
  </defs>
  <g id="组_4" data-name="组 4" transform="translate(-602 -225)">
    <g id="组_3" data-name="组 3" transform="translate(602 225)">
      <g id="组_2" data-name="组 2" class="cls-2" transform="translate(0)">
        <path id="路径_6" data-name="路径 6" class="cls-3" d="M623.877,259.027a1.908,1.908,0,0,1-.907.21,1.984,1.984,0,0,1-1.754-1.05l-.142-.277-5.533-12.055a.914.914,0,0,1-.068-.42.958.958,0,0,1,.982-.982,1.113,1.113,0,0,1,.63.21l6.515,4.626a3.387,3.387,0,0,0,1.68.487,2.765,2.765,0,0,0,1.05-.21l30.551-13.592c-5.465-6.448-14.5-10.653-24.734-10.653-16.674,0-30.267,11.283-30.267,25.221,0,7.565,4.064,14.432,10.437,19.058a2.069,2.069,0,0,1,.84,1.612,1.93,1.93,0,0,1-.142.63c-.487,1.89-1.334,4.978-1.334,5.113a2.565,2.565,0,0,0-.143.772.958.958,0,0,0,.982.982.794.794,0,0,0,.562-.21l6.583-3.854a3.343,3.343,0,0,1,1.612-.488,3.841,3.841,0,0,1,.907.142,35.184,35.184,0,0,0,9.881,1.4c16.674,0,30.267-11.283,30.267-25.221a22.151,22.151,0,0,0-3.434-11.7l-34.811,20.108Zm0,0" transform="translate(-601.89 -225.293)"/>
      </g>
    </g>
  </g>
</svg>
