<svg xmlns="http://www.w3.org/2000/svg" xmlns:xlink="http://www.w3.org/1999/xlink" width="28" height="28" viewBox="0 0 28 28">
  <defs>
    <clipPath id="clip-path">
      <rect id="SVGID" width="28" height="28" fill="none"/>
    </clipPath>
  </defs>
  <g id="alipay" transform="translate(-610 -191)">
    <g id="组_35" data-name="组 35" transform="translate(610 191)">
      <g id="组_34" data-name="组 34" transform="translate(0 0)" clip-path="url(#clip-path)">
        <path id="路径_31" data-name="路径 31" d="M616.177,207.054a2.1,2.1,0,0,0-.787,1.146,2.372,2.372,0,0,0,.621,2.177,4.137,4.137,0,0,0,2.5,1.059,6.646,6.646,0,0,0,4.031-1.388,8.9,8.9,0,0,0,1.924-1.9,11.9,11.9,0,0,0-5.813-1.671,5.756,5.756,0,0,0-2.478.581Zm20.577,3.7a14.049,14.049,0,1,0-1.548,2.724c-2.405-1.194-6.369-3.159-8.81-4.348a10.868,10.868,0,0,1-4.833,3.234,6.965,6.965,0,0,1-3.476.266,4.608,4.608,0,0,1-2.471-1.3,4.662,4.662,0,0,1-.743-1.032c.019.052.033.083.033.083a2.5,2.5,0,0,1-.211-.532,2.355,2.355,0,0,1-.091-.5,5.993,5.993,0,0,1,.04-1.013,3.36,3.36,0,0,1,.961-1.793,5.616,5.616,0,0,1,4.067-1.376,21.49,21.49,0,0,1,5.789,1.322,20.539,20.539,0,0,0,1.148-3.305h-8.384v-.905h4.305v-1.811h-5.212v-.905h5.212v-1.81c0-.248.049-.453.453-.453h2.039v2.263h5.666v.905h-5.666v1.811h4.532a17.737,17.737,0,0,1-1.878,5.031c3.158,1.127,7.6,2.862,9.078,3.441Zm0,0" transform="translate(-609.885 -191.305)" fill="#4092cc"/>
      </g>
    </g>
  </g>
</svg>
