<svg xmlns="http://www.w3.org/2000/svg" xmlns:xlink="http://www.w3.org/1999/xlink" width="32" height="32" viewBox="0 0 32 32"><defs><style>.a{fill:#17c2b2;}.b{clip-path:url(#a);}</style><clipPath id="a"><rect class="a" width="32" height="32"/></clipPath></defs><g transform="translate(-601 -190)"><path class="a" d="M617.293,504H602.448A1.448,1.448,0,0,0,601,505.451V520.3a1.448,1.448,0,0,0,1.448,1.448h14.845a1.449,1.449,0,0,0,1.448-1.448V505.451A1.448,1.448,0,0,0,617.293,504Zm-1.7,13.659a.934.934,0,0,1-.934.935h-9.578a.934.934,0,0,1-.934-.935v-9.577a.934.934,0,0,1,.934-.935h9.578a.934.934,0,0,1,.934.935Zm0,0" transform="translate(0 -299.788)"/><path class="a" d="M736.931,634.647h-4.816a.47.47,0,0,0-.47.47v4.817a.47.47,0,0,0,.47.47h4.816a.47.47,0,0,0,.469-.47v-4.817a.47.47,0,0,0-.469-.47Zm0,0" transform="translate(-124.847 -424.397)"/><path class="a" d="M1082.008,505.451v9.176a1.513,1.513,0,0,0,1.571,1.448h.051a1.513,1.513,0,0,0,1.571-1.448v-9.176A1.513,1.513,0,0,0,1083.63,504h-.051a1.513,1.513,0,0,0-1.571,1.448Zm0,0" transform="translate(-459.6 -299.735)"/><path class="a" d="M1249.3,504h-.051a1.513,1.513,0,0,0-1.571,1.448v2.295a1.514,1.514,0,0,0,1.571,1.448h.051a1.513,1.513,0,0,0,1.571-1.448v-2.295A1.513,1.513,0,0,0,1249.3,504Zm0,0" transform="translate(-617.9 -299.701)"/><g transform="translate(601 190)"><g class="b" transform="translate(0 0)"><path class="a" d="M1090.982,655.506h-.05a1.486,1.486,0,0,0-1.529,1.44v6.115h-5.986a1.491,1.491,0,0,0-1.409,1.562v.051a1.491,1.491,0,0,0,1.409,1.562h7.684a1.322,1.322,0,0,0,.934-.4l.044-.04c.013-.015.026-.029.038-.045a1.382,1.382,0,0,0,.392-.955v-7.85a1.485,1.485,0,0,0-1.529-1.44Zm0,0" transform="translate(-1060.537 -634.279)"/><path class="a" d="M601.438,200.724h2.18a.443.443,0,0,0,.438-.448v-9.853a.443.443,0,0,0-.438-.448h-2.18a.443.443,0,0,0-.438.448v9.853a.443.443,0,0,0,.438.448Zm0,0" transform="translate(-601 -189.976)"/><path class="a" d="M719.532,200.724h.853a.443.443,0,0,0,.438-.448v-9.853a.443.443,0,0,0-.438-.448h-.853a.443.443,0,0,0-.438.448v9.853a.443.443,0,0,0,.438.448Zm0,0" transform="translate(-713.822 -189.976)"/><path class="a" d="M964.066,425.642a.068.068,0,0,1-.013,0,.078.078,0,0,1-.014,0Zm0,0" transform="translate(-947.834 -414.894)"/><path class="a" d="M964.039,189.975a.078.078,0,0,1,.014,0,.068.068,0,0,1,.013,0Zm0,0" transform="translate(-947.834 -189.976)"/><path class="a" d="M955.245,200.781a.442.442,0,0,0,.425-.445v-9.853a.426.426,0,1,0-.851,0v9.853a.442.442,0,0,0,.425.445Zm0,0" transform="translate(-939.026 -190.036)"/><path class="a" d="M1251.716,189.975h-2.18a.443.443,0,0,0-.438.448v9.853a.443.443,0,0,0,.438.448h2.18a.443.443,0,0,0,.438-.448v-9.853a.443.443,0,0,0-.438-.448Zm0,0" transform="translate(-1220.168 -189.976)"/><path class="a" d="M1161.153,200.724h.869a.443.443,0,0,0,.439-.448v-9.853a.443.443,0,0,0-.439-.448h-.869a.444.444,0,0,0-.438.448v9.853a.444.444,0,0,0,.438.448Zm0,0" transform="translate(-1135.731 -189.976)"/><path class="a" d="M827.3,200.724h2.627a.443.443,0,0,0,.438-.448v-9.853a.443.443,0,0,0-.438-.448H827.3a.443.443,0,0,0-.438.448v9.853a.443.443,0,0,0,.438.448Zm0,0" transform="translate(-816.777 -189.976)"/><path class="a" d="M1036.577,200.276v-9.853a.444.444,0,0,0-.439-.448h-2.626a.442.442,0,0,0-.438.448v9.853a.442.442,0,0,0,.438.448h2.626a.444.444,0,0,0,.439-.448Zm0,0" transform="translate(-1013.787 -189.976)"/></g></g></g></svg>