<svg xmlns="http://www.w3.org/2000/svg" width="14" height="16" viewBox="0 0 14 16"><defs><style>.a{fill:#ababab;}</style></defs><g transform="translate(-663 -192)"><path class="a" d="M673.46,193.569v-.314A1.238,1.238,0,0,0,672.253,192h-8.046A1.238,1.238,0,0,0,663,193.255v9.725a1.238,1.238,0,0,0,1.207,1.255h1.207v-8.314a1.582,1.582,0,0,1,1.609-1.49h6.437Zm1.529,5.569h-6.437v-.784h6.437Zm0,5.49h-6.437v-.784h6.437Zm0-2.745h-6.437V201.1h6.437Zm.8-6.823h-8.448a1.222,1.222,0,0,0-1.207,1.176v10.588A1.222,1.222,0,0,0,667.345,208h8.448A1.222,1.222,0,0,0,677,206.824V196.235a1.222,1.222,0,0,0-1.207-1.176Zm0,0"/></g></svg>