<svg xmlns="http://www.w3.org/2000/svg" xmlns:xlink="http://www.w3.org/1999/xlink" width="36" height="32" viewBox="0 0 36 32"><defs><style>.a{fill:none;}.b{clip-path:url(#a);}.c{fill:#dec793;}</style><clipPath id="a"><rect class="a" width="36" height="32"/></clipPath></defs><g transform="translate(-553 -179)"><g transform="translate(553 179)"><g class="b" transform="translate(0 0)"><path class="c" d="M588.267,189.847l-6.966-9.128a2.948,2.948,0,0,0-2.328-1.157H562.788a2.949,2.949,0,0,0-2.328,1.157l-6.966,9.128a3,3,0,0,0,.146,3.813L568.7,210.515a2.92,2.92,0,0,0,4.364,0l15.059-16.854a3,3,0,0,0,.145-3.813Zm-2.141,1.99L571.068,208.69a.252.252,0,0,1-.373,0l-15.06-16.853a.256.256,0,0,1-.013-.327l6.966-9.129a.252.252,0,0,1,.2-.1h16.185a.253.253,0,0,1,.2.1l6.965,9.13a.258.258,0,0,1-.011.327Zm-9.025.239-6.033,6.753a.252.252,0,0,1-.373,0l-6.164-6.9a1.331,1.331,0,0,0-1.882-.082,1.374,1.374,0,0,0-.112,1.907l6.162,6.9a2.92,2.92,0,0,0,4.364,0l6.032-6.753a1.374,1.374,0,0,0-.1-1.922,1.332,1.332,0,0,0-1.9.1h0Zm0,0" transform="translate(-552.886 -179.537)"/></g></g></g></svg>