<svg xmlns="http://www.w3.org/2000/svg" width="19.306" height="17.697" viewBox="0 0 19.306 17.697"><defs><style>.a{fill:#fff;}</style></defs><g transform="translate(-601 -208)"><path class="a" d="M619.616,217.529H601.69a.681.681,0,1,1,0-1.361h17.927a.681.681,0,1,1,0,1.361Zm-2.068,8.168h-4.137a.681.681,0,1,1,0-1.361h4.137a.685.685,0,0,0,.689-.681v-3.4a.69.69,0,0,1,1.379,0v3.4a2.058,2.058,0,0,1-2.068,2.042Zm-10.342,0h-3.447a2.058,2.058,0,0,1-2.068-2.042v-3.4a.69.69,0,0,1,1.379,0v3.4a.686.686,0,0,0,.69.681h3.447a.681.681,0,1,1,0,1.361Zm-4.826-11.571a.685.685,0,0,1-.69-.681v-3.4A2.058,2.058,0,0,1,603.758,208h3.447a.681.681,0,1,1,0,1.361h-3.447a.686.686,0,0,0-.689.681v3.4a.685.685,0,0,1-.689.681Zm16.547,0a.685.685,0,0,1-.69-.681v-3.4a.686.686,0,0,0-.69-.681h-4.137a.681.681,0,1,1,0-1.361h4.137a2.058,2.058,0,0,1,2.068,2.042v3.4a.685.685,0,0,1-.689.681Zm0,0"/></g></svg>