<svg xmlns="http://www.w3.org/2000/svg" width="20" height="14" viewBox="0 0 20 14"><defs><style>.a{fill:#fff;}</style></defs><g transform="translate(-655 -327)"><path class="a" d="M673.128,327h-11.8a1.9,1.9,0,0,0-1.468.7l-4.606,5.514-.013.013a1.268,1.268,0,0,0-.242.767,1.37,1.37,0,0,0,.3.834l4.566,5.487a1.93,1.93,0,0,0,1.468.686h11.8A1.867,1.867,0,0,0,675,339.131V328.869A1.867,1.867,0,0,0,673.128,327Zm-3.717,9.562a.684.684,0,0,1-.485.2.641.641,0,0,1-.485-.2l-1.589-1.587-1.589,1.587a.686.686,0,0,1-1.172-.484.639.639,0,0,1,.2-.484l1.589-1.587-1.6-1.6a.685.685,0,1,1,.97-.968l1.589,1.587,1.589-1.587a.672.672,0,0,1,.97.013.681.681,0,0,1,0,.968l-1.576,1.573,1.589,1.587a.7.7,0,0,1,0,.982Zm0,0"/></g></svg>