<svg xmlns="http://www.w3.org/2000/svg" xmlns:xlink="http://www.w3.org/1999/xlink" width="32" height="32" viewBox="0 0 32 32"><defs><style>.a{fill:#4784ff;}.b{clip-path:url(#a);}</style><clipPath id="a"><rect class="a" width="32" height="32"/></clipPath></defs><g transform="translate(-557 -138)"><g transform="translate(557 138)"><g class="b" transform="translate(0 0)"><path class="a" d="M566.595,150.354a1.639,1.639,0,1,0,1.6-2,1.832,1.832,0,0,0-1.6,2Zm9.592,0a1.639,1.639,0,1,0,1.6-2,1.832,1.832,0,0,0-1.6,2Zm-3.179,11.409a10.531,10.531,0,0,1-5.753-1.733,1.6,1.6,0,1,1,1.868-2.591,7.234,7.234,0,0,0,7.824-.06,1.6,1.6,0,1,1,1.683,2.719,10.573,10.573,0,0,1-5.622,1.666ZM558.6,150.555a1.6,1.6,0,0,1-1.6-1.6V144.6c0-3.318,2.187-6.022,4.878-6.022H567.4a1.6,1.6,0,1,1,0,3.194h-5.517c-.792,0-1.68,1.21-1.68,2.827v4.361a1.6,1.6,0,0,1-1.6,1.6Zm8.8,19.957h-5.517c-2.691,0-4.878-2.7-4.878-6.022v-4.356a1.6,1.6,0,0,1,3.2,0v4.36c0,1.617.887,2.827,1.68,2.827H567.4a1.6,1.6,0,1,1,0,3.19Zm19.982-19.958a1.6,1.6,0,0,1-1.6-1.6V144.6c0-1.617-.9-2.827-1.695-2.827h-5.5a1.6,1.6,0,1,1,0-3.194h5.5c2.7,0,4.893,2.7,4.893,6.022v4.361a1.6,1.6,0,0,1-1.6,1.6Zm-3.291,19.958h-5.5a1.6,1.6,0,1,1,0-3.194h5.5c.8,0,1.7-1.21,1.7-2.827v-4.356a1.6,1.6,0,0,1,3.2,0v4.36c0,3.319-2.2,6.018-4.893,6.018Zm0,0" transform="translate(-557 -138.551)"/></g></g></g></svg>