<svg xmlns="http://www.w3.org/2000/svg" xmlns:xlink="http://www.w3.org/1999/xlink" width="32" height="32" viewBox="0 0 32 32"><defs><style>.a{fill:none;}.b{clip-path:url(#a);}</style><clipPath id="a"><rect class="a" width="32" height="32"/></clipPath></defs><g transform="translate(-591 -183)"><g transform="translate(591 183)"><g class="b" transform="translate(0 0)"><path d="M593.712,206.53h-2.4v7.8a1.28,1.28,0,0,0,1.278,1.316h7.6V213.17h-6.477Zm0-20.339h6.477V183.72h-7.6a1.28,1.28,0,0,0-1.278,1.316V192.8h2.4Zm26.267,26.983h-6.372v2.471H621.1a1.279,1.279,0,0,0,1.279-1.316v-7.8h-2.4Zm0-20.532h2.4v-7.6a1.28,1.28,0,0,0-1.279-1.316h-7.494v2.471h6.372Zm-29.1,5.242h32v2.471h-32Zm0,0" transform="translate(-590.885 -183.688)"/></g></g></g></svg>