<svg xmlns="http://www.w3.org/2000/svg" xmlns:xlink="http://www.w3.org/1999/xlink" width="28" height="26" viewBox="0 0 28 26">
  <defs>
    <clipPath id="clip-path">
      <rect id="SVGID" width="28" height="26" fill="none"/>
    </clipPath>
  </defs>
  <g id="wechatpay" transform="translate(-602 -225)">
    <g id="组_32" data-name="组 32" transform="translate(602 225)">
      <g id="组_31" data-name="组 31" transform="translate(0 0)" clip-path="url(#clip-path)">
        <path id="路径_30" data-name="路径 30" d="M612.057,241.7a.848.848,0,0,1-.42.1.913.913,0,0,1-.812-.51l-.066-.135L608.2,235.3a.464.464,0,0,1-.031-.2.455.455,0,0,1,.454-.477.5.5,0,0,1,.292.1l3.014,2.248a1.512,1.512,0,0,0,.777.237,1.226,1.226,0,0,0,.486-.1l14.135-6.606a14.652,14.652,0,0,0-11.443-5.178c-7.714,0-14,5.484-14,12.258a11.719,11.719,0,0,0,4.829,9.262,1.022,1.022,0,0,1,.388.783.979.979,0,0,1-.066.306c-.225.918-.617,2.419-.617,2.485a1.3,1.3,0,0,0-.066.375.455.455,0,0,0,.454.477.358.358,0,0,0,.26-.1l3.046-1.873a1.494,1.494,0,0,1,.746-.237,1.7,1.7,0,0,1,.42.069,15.551,15.551,0,0,0,4.572.681c7.714,0,14-5.484,14-12.258a11.166,11.166,0,0,0-1.589-5.688l-16.106,9.773Zm0,0" transform="translate(-601.885 -225.307)" fill="#09bb07"/>
      </g>
    </g>
  </g>
</svg>
