<svg xmlns="http://www.w3.org/2000/svg" width="32" height="32" viewBox="0 0 32 32"><defs><style>.a,.b{fill:#ffb73b;}.a{stroke:#ffb73b;stroke-width:0.3px;}</style></defs><g transform="translate(-1067 -158)"><path class="a" d="M811.732,331.585a1.161,1.161,0,0,0,0-2.321H802.6a1.16,1.16,0,0,0,0,2.321h3.426v2.321H802.6a1.161,1.161,0,0,0,0,2.321h3.426v3.481a1.142,1.142,0,1,0,2.284,0v-3.481h3.426a1.16,1.16,0,0,0,0-2.321h-3.426v-2.32ZM804.88,328.3a1.151,1.151,0,0,0,1.142-1.16v-1.16a1.142,1.142,0,1,0-2.284,0v1.16a1.151,1.151,0,0,0,1.142,1.16Zm4.568,0a1.151,1.151,0,0,0,1.142-1.16v-1.16a1.142,1.142,0,1,0-2.284,0v1.16a1.151,1.151,0,0,0,1.142,1.16Zm0,0" transform="translate(275.82 -158.756)"/><path class="b" d="M-2330-189h-20a6.007,6.007,0,0,1-6-6v-20a6.007,6.007,0,0,1,6-6h20a6.007,6.007,0,0,1,6,6v20A6.007,6.007,0,0,1-2330-189Zm-20-29a3,3,0,0,0-3,3v20a3,3,0,0,0,3,3h20a3,3,0,0,0,3-3v-20a3,3,0,0,0-3-3Z" transform="translate(3423 379)"/></g></svg>