<svg xmlns="http://www.w3.org/2000/svg" xmlns:xlink="http://www.w3.org/1999/xlink" width="60" height="60" viewBox="0 0 60 60"><defs><style>.a{fill:none;}.b{clip-path:url(#a);}.c{fill:#35dba3;}</style><clipPath id="a"><rect class="a" width="60" height="60"/></clipPath></defs><g transform="translate(-550 -130)"><g transform="translate(550 130)"><g class="b" transform="translate(0 0)"><path class="c" d="M579.857,190.409a29.944,29.944,0,1,1,29.976-29.944,29.96,29.96,0,0,1-29.976,29.944Zm-5.073-18.544a2.151,2.151,0,0,0,1.741-.689l16.951-18.056a2.49,2.49,0,0,0,0-3.367,2.14,2.14,0,0,0-3.159,0L574.8,166.285l-6.552-6.544a2.4,2.4,0,1,0-3.394,3.391l8.048,8.038a2.4,2.4,0,0,0,1.879.694Zm0,0" transform="translate(-549.889 -130.482)"/></g></g></g></svg>