<svg xmlns="http://www.w3.org/2000/svg" xmlns:xlink="http://www.w3.org/1999/xlink" width="113" height="124" viewBox="0 0 113 124">
  <defs>
    <clipPath id="clip-path">
      <rect id="矩形_5" data-name="矩形 5" width="113" height="124" transform="translate(302 453)" fill="#fff" stroke="#707070" stroke-width="1"/>
    </clipPath>
  </defs>
  <g id="footr-logo" transform="translate(-302 -453)" clip-path="url(#clip-path)">
    <g id="组_11" data-name="组 11" transform="translate(302 453)">
      <g id="组_3" data-name="组 3" transform="translate(0 97.822)">
        <path id="路径_1" data-name="路径 1" d="M1118.62,131.943h2.147a1.232,1.232,0,0,1,1.241,1.223q0,10.98,0,21.959a2.793,2.793,0,0,1-2.636,2.885c-.983.037-1.966.024-2.948.017a1.228,1.228,0,0,1-1.229-1.218v-1.157a1.241,1.241,0,0,1,1.131-1.222c.565-.059,1.056-.265,1.036-.943.045-6.773.011-13.548.018-20.321A1.233,1.233,0,0,1,1118.62,131.943Z" transform="translate(-1106.796 -131.918)" fill="#fff"/>
        <path id="路径_2" data-name="路径 2" d="M1244.83,158.03c1.475,0,2.953,0,4.427,0q0-5.263,0-10.53c1.488-.007,2.976,0,4.46,0q.005-1.7,0-3.4c-1.484,0-2.88,0-4.368,0,0-.471,0-.942,0-1.409,1.562,0,3.032,0,4.594,0v-3.363c-.653,0-1.306,0-1.959,0,.249-.866.5-1.731.757-2.593.4,0,.8,0,1.2,0,0-1.124,0-2.245,0-3.37-1.468-.007-2.935,0-4.4,0,0-.471,0-.939,0-1.409h-4.713v1.409q-2.216,0-4.43,0-.01,1.686,0,3.379c.269,0,.811-.007,1.08-.007q.374,1.293.734,2.6h-2.472l-.13,3.348,5.1.014.013,1.42c-1.552,0-2.982,0-4.537,0l-.135,3.386c1.223.067,4.791.112,4.791.112m2.271-8.158c-.875-.643-1.053-1.754-1.377-2.709q1.384-.01,2.767,0A5.7,5.7,0,0,1,1247.122,139.441Z" transform="translate(-1211.42 -131.918)" fill="#fff"/>
        <g id="组_2" data-name="组 2" transform="translate(57.998 0.025)">
          <g id="组_1" data-name="组 1">
            <path id="路径_3" data-name="路径 3" d="M1438.047,137.7c-2.888-.016-8.075,0-10.963-.006l2.775-3.592c3.672,0,4.57,0,8.243,0,0-.716,0-1.436,0-2.156,1.5,0,3.012,0,4.517,0,0,.716,0,1.433,0,2.149,3.629.01,7.258,0,10.886.007v3.585c-3.629.007-7.258,0-10.883,0,0,1.29,0,2.58,0,3.87,3.178.023,5.891-.049,9.069.018,2.865,0,2.865,2.3,1.569,3.574-2.575,2.192-5.262,4.258-7.86,6.424a20.431,20.431,0,0,0,8.1,2.365c0,1.363,0,2.726,0,4.093-4.05-.448-8.163-1.39-11.593-3.645-2.3,1.748-4.817,3.525-7.83,3.678a8.479,8.479,0,0,1-5.13-1.625c-2.457-2.418-2.255-7.037.663-9.024a8.981,8.981,0,0,1,6.773-.929,24.826,24.826,0,0,1,5.44,2.365c1.576-1.224,3.144-2.464,4.716-3.7-6.379-.007-12.755,0-19.131-.007,0-1.2,0-2.391,0-3.588q5.347,0,10.692,0m-6.669,10.566a2.109,2.109,0,0,0,2.612,1.864,9.324,9.324,0,0,0,4-2.116,11.515,11.515,0,0,0-4.053-1.7A2.1,2.1,0,0,0,1431.437,152.127Z" transform="translate(-1427.084 -131.943)" fill="#fff"/>
          </g>
        </g>
        <path id="路径_4" data-name="路径 4" d="M1610.91,132.971c1.027-.007,1.727-.015,2.535-.019a.822.822,0,0,1,.821.965,17.574,17.574,0,0,1-4.058,8.962c.3-.636.743-1.538,1.193-2.459.381-.782,1.574-3.115,1.574-2.248,0,5.019.005,14.622,0,18.133a2.372,2.372,0,0,1-.806,2.029.921.921,0,0,1-.161.094,4.785,4.785,0,0,1-2.081.287.822.822,0,0,1-.827-.814c0-4.1,0-8.345,0-12.46a.825.825,0,0,0-1.167-.742l-.026.012a.827.827,0,0,1-1.167-.74q-.012-1.864-.022-3.728a.8.8,0,0,1,.284-.618c1.819-1.5,2.579-3.806,3.109-6.026A.823.823,0,0,1,1610.91,132.971Z" transform="translate(-1520.335 -132.768)" fill="#fff"/>
        <path id="路径_5" data-name="路径 5" d="M1673.49,131.784h2.607a.961.961,0,0,1,.967.954q0,.456,0,.912a.961.961,0,0,0,.968.953h0a.961.961,0,0,1,.968.954v1.986a.961.961,0,0,1-.968.954h0a.961.961,0,0,0-.969.953c0,5.174,0,10.349,0,15.523a2.772,2.772,0,0,1-2.43,2.922c-1.407.062-2.817.029-4.225.025a.96.96,0,0,1-.962-.94q-.012-.856-.025-1.712a.961.961,0,0,1,.974-.968c1.445.008,2.084.046,2.084-.713.111-3.526.01-7.058.047-10.586-.027-1.124.131-2.361-.518-3.36a3.106,3.106,0,0,0-2.747-1.137c-2.4-.015-4.81,0-7.214-.005a.963.963,0,0,1-.968-.954q0-1,0-1.989a.962.962,0,0,1,.968-.953q4.754,0,9.507,0a.961.961,0,0,0,.969-.953q0-.456,0-.912A.962.962,0,0,1,1673.49,131.784Z" transform="translate(-1566.001 -131.784)" fill="#fff"/>
        <path id="路径_6" data-name="路径 6" d="M1348.128,144.268l-7.544-.023c-.007,5.146.024,10.292-.02,15.439-1.4,0-2.807,0-4.208,0-.02-7.384-.017-14.772-.037-22.156a4.173,4.173,0,0,1,.687-2.672,2.886,2.886,0,0,1,2.367-.942c2.922-.017,7.2,0,10.122-.007l-3.362,3.807h0c-1.858.017-3.713-.023-5.571-.023q.01,1.482.027,2.958l7.557.113" transform="translate(-1292.787 -133.574)" fill="#fff"/>
        <path id="路径_7" data-name="路径 7" d="M1064.35,149.056h2.25a.961.961,0,0,1,.969,1.018q-.669,9.652-1.329,19.307a.963.963,0,0,1-.961.887l-2.448.018a.96.96,0,0,1-.974-1.025q.76-9.663,1.53-19.329A.96.96,0,0,1,1064.35,149.056Z" transform="translate(-1061.853 -146.338)" fill="#fff"/>
        <path id="路径_8" data-name="路径 8" d="M1191.424,149.052h1.941a1.115,1.115,0,0,1,1.117,1q.941,9.517,1.885,19.032a1.111,1.111,0,0,1-1.118,1.21h-2.142a1.115,1.115,0,0,1-1.119-1.008q-.842-9.517-1.683-19.03A1.111,1.111,0,0,1,1191.424,149.052Z" transform="translate(-1169.939 -146.334)" fill="#fff"/>
        <path id="路径_9" data-name="路径 9" d="M1672.989,201.876a2.4,2.4,0,0,1,2.444-3.022q.237.011.474.029a1.942,1.942,0,0,1,1.522,1.447q.559,1.63,1.11,3.263a2.389,2.389,0,0,1-3.282,2.927l-.069-.033a2.385,2.385,0,0,1-1.239-1.382C1673.475,203.718,1673.264,202.862,1672.989,201.876Z" transform="translate(-1575.964 -188.515)" fill="#fff"/>
        <path id="路径_10" data-name="路径 10" d="M1308.864,241.895h3.038v9.146c-1.161,0-2.052-.013-3.21.024Z" transform="translate(-1269.569 -224.954)" fill="#fff"/>
        <path id="路径_11" data-name="路径 11" d="M1241.109,241.895l3.488.138v9.038c-1.161,0-2.5-.042-3.66-.005Z" transform="translate(-1212.552 -224.954)" fill="#fff"/>
        <rect id="矩形_3" data-name="矩形 3" width="3.82" height="16.375" transform="translate(50.027 9.803)" fill="#fff"/>
      </g>
      <g id="组_8" data-name="组 8" transform="translate(20.293)">
        <g id="组_7" data-name="组 7">
          <g id="组_5" data-name="组 5" transform="translate(4.555)">
            <path id="路径_13" data-name="路径 13" d="M822.555,140.46l12.717,24.183,9.911-11.482,11.041,16.615,32.862-31.316-18-15.832L888.3,102.186,858.4,84.353l-11.3,17.485L838.924,94.7,823.8,120.714l5.737,8.786Z" transform="translate(-822.555 -84.353)" fill="#fff"/>
          </g>
          <g id="组_6" data-name="组 6" transform="translate(0 6.736)" opacity="0.95">
            <path id="路径_14" data-name="路径 14" d="M808.618,146.209l9.355,17.778,7.29-8.441,8.122,12.214,24.173-23.022L844.319,133.1l12.662-15.028-22-13.11-8.313,12.854-6.011-5.244-11.127,19.121,4.221,6.459Z" transform="translate(-808.618 -104.962)" fill="#38f4a6"/>
          </g>
        </g>
      </g>
    </g>
  </g>
</svg>
