<svg xmlns="http://www.w3.org/2000/svg" width="120" height="120" viewBox="0 0 120 120">
  <defs>
    <style>
      .cls-1 {
        fill: #fff;
      }

      .cls-2 {
        font-size: 18px;
        font-family: PingFang SC Medium, PingFang SC;
      }

      .cls-3 {
        fill: #533011;
      }
    </style>
  </defs>
  <g id="组_209" data-name="组 209" transform="translate(-1401 -157)">
    <rect id="矩形_144" data-name="矩形 144" class="cls-1" width="120" height="120" rx="10" transform="translate(1401 157)"/>
    <text id="咖啡易融" class="cls-2" transform="translate(1425 242)"><tspan x="0" y="0">咖啡易融</tspan></text>
    <g id="组_208" data-name="组 208" transform="translate(157.24)">
      <path id="路径_832" data-name="路径 832" class="cls-3" d="M60.966-163.995a12.74,12.74,0,0,0-12.739,12.739,12.741,12.741,0,0,0,12.739,12.741,12.741,12.741,0,0,0,12.741-12.741A12.74,12.74,0,0,0,60.966-163.995Zm0,18.673-5.932-5.934,5.932-5.934,5.934,5.934Z" transform="translate(1242.793 349.086)"/>
      <path id="路径_833" data-name="路径 833" d="M77.227-156.168a16.067,16.067,0,0,1,1.163,8.688,16.1,16.1,0,0,1-13.877,13.633,16.073,16.073,0,0,1-17.972-17.89A16.116,16.116,0,0,1,60.2-165.688a16,16,0,0,1,8.762,1.209l2.2-2.2a18.939,18.939,0,0,0-11.882-1.84,19.038,19.038,0,0,0-15.65,16.369A19.012,19.012,0,0,0,64.8-130.923a19.046,19.046,0,0,0,16.407-15.6,18.931,18.931,0,0,0-1.785-11.848Z" transform="translate(1241.271 347.547)"/>
      <path id="路径_834" data-name="路径 834" class="cls-3" d="M.481,0H8.388a.486.486,0,0,1,.486.486V4.068a.486.486,0,0,1-.486.486H.481A.486.486,0,0,1,0,4.068V.481A.486.486,0,0,1,.481,0Z" transform="translate(1309.344 189.029) rotate(-45)"/>
    </g>
  </g>
</svg>
