<svg xmlns="http://www.w3.org/2000/svg" width="120" height="120" viewBox="0 0 120 120">
  <defs>
    <style>
      .cls-1 {
        fill: #fff;
      }

      .cls-2 {
        font-size: 18px;
        font-family: PingFang SC Medium, PingFang SC;
      }

      .cls-3 {
        fill: #009de2;
      }

      .cls-4 {
        fill: #fed001;
      }

      .cls-5 {
        fill: #e50112;
      }
    </style>
  </defs>
  <g id="组_210" data-name="组 210" transform="translate(-1197 -157)">
    <rect id="矩形_142" data-name="矩形 142" class="cls-1" width="120" height="120" rx="10" transform="translate(1197 157)"/>
    <text id="红黄蓝教育" class="cls-2" transform="translate(1212 242)"><tspan x="0" y="0">红黄蓝教育</tspan></text>
    <g id="组_203" data-name="组 203" transform="translate(157)">
      <g id="组_198" data-name="组 198" transform="translate(1110.986 182)">
        <path id="路径_829" data-name="路径 829" class="cls-3" d="M463.723-437a4.588,4.588,0,0,1,1.589-.135,17.388,17.388,0,0,1,2.006.261,3.618,3.618,0,0,1,1.274.454,6.632,6.632,0,0,1,.987.664,10.953,10.953,0,0,0,1.286.547c.5.265.988.561,1.5.809-.047.307-.372.4-.61.526a2.417,2.417,0,0,0-.931.654,4.107,4.107,0,0,0-.837,1.305c-.038.4.267.7.475,1,.22.376.355.8.591,1.164a7.916,7.916,0,0,1,.6.874q.181.429.373.853c.146.322.155.685.29,1.01a7.322,7.322,0,0,1,.475,1.169,8.782,8.782,0,0,1,.151,2.362,5.8,5.8,0,0,1-.389,1.822,12.2,12.2,0,0,1-.774,1.764,8.9,8.9,0,0,1-2.014,2.261,19.918,19.918,0,0,1-3.22,2.546,18.355,18.355,0,0,1-3.85,1.219,6.4,6.4,0,0,1-1.1.2c-.228-.288-.165-.71-.381-1.007-.322-.159-.755-.113-1-.4a6.879,6.879,0,0,1-.147-.922,4.042,4.042,0,0,1-.013-1.905c.221-.864.47-1.721.634-2.6a24.151,24.151,0,0,0,.762-3.677c.031-.323.165-.628.168-.955a9.926,9.926,0,0,0-.163-1.487c-.121-.864-.285-1.721-.475-2.573-.231-1.235-.879-2.361-1-3.622a2.225,2.225,0,0,1,.134-.9,3.952,3.952,0,0,1,1.347-2.16,7.828,7.828,0,0,1,1.081-.5A10.471,10.471,0,0,1,463.723-437Z" transform="translate(-459.942 437.134)"/>
      </g>
      <g id="组_199" data-name="组 199" transform="translate(1093.105 182.461)">
        <path id="路径_830" data-name="路径 830" class="cls-4" d="M256.264-431.761a1.625,1.625,0,0,1,1.04.032,17.67,17.67,0,0,0,2.757.567,20.241,20.241,0,0,1,2.441.17,8.84,8.84,0,0,1,2.735,1,12.93,12.93,0,0,1,1.465.8,10.549,10.549,0,0,1,1.607,1.183,9.325,9.325,0,0,1,1.323,1.459,11.185,11.185,0,0,1,1.054,2.336c.146.4-.053.824.081,1.221.113.336.3.643.42.976.225.586.277,1.218.444,1.821a6.661,6.661,0,0,1,.071,1.224,8.973,8.973,0,0,1-.025,3.054,2.073,2.073,0,0,1-.281,1.023,3.585,3.585,0,0,1-.878.768,5.3,5.3,0,0,1-1.179.44,15.907,15.907,0,0,1,.838,1.848c-.317-.588-.6-1.195-.905-1.787a17.341,17.341,0,0,0-1.07-1.544,17.8,17.8,0,0,0-1.669-2,7.057,7.057,0,0,0-1.123-.972,20.351,20.351,0,0,0-2.14-1.44c-.739-.383-1.466-.789-2.234-1.113l.194-.126a23.742,23.742,0,0,0-2.332-3.794c-1.091-1.3-2.166-2.61-3.187-3.964-.26-.41-.678-.779-.673-1.3a6.316,6.316,0,0,1-.069-1.087A3.823,3.823,0,0,1,256.264-431.761Z" transform="translate(-254.957 431.84)"/>
      </g>
      <g id="组_200" data-name="组 200" transform="translate(1076 188.02)">
        <path id="路径_831" data-name="路径 831" class="cls-5" d="M64.073-367.867c.443.009.857-.261,1.3-.167a14.143,14.143,0,0,0,2.1.422,9.4,9.4,0,0,1,1.59.194,20.038,20.038,0,0,1,2.568.512c.728.2,1.435.476,2.152.715,1.249.48,2.531.871,3.789,1.327a10.93,10.93,0,0,1,2.894,1.391c.536.321,1.028.714,1.585,1,.768.324,1.5.73,2.234,1.113a20.357,20.357,0,0,1,2.14,1.44,7.06,7.06,0,0,1,1.123.972,17.809,17.809,0,0,1,1.669,2,17.337,17.337,0,0,1,1.07,1.544c.307.593.589,1.2.905,1.787a11.586,11.586,0,0,1,1.09,3.4,8.035,8.035,0,0,1-.175,2.408,3.985,3.985,0,0,1-.524,1.543,12.354,12.354,0,0,0-.736,1.017,13.279,13.279,0,0,1-1.024,1.148,2.305,2.305,0,0,1-.846.732,5.663,5.663,0,0,0-.795.52c-.3.139-.653.114-.952.267a7.067,7.067,0,0,1-1.221.277,3.573,3.573,0,0,1-1,.235,2.831,2.831,0,0,1-.527-.39c-.407-.348-.96-.463-1.361-.821-.673-.577-1.211-1.289-1.823-1.927-.494-.637-1.012-1.255-1.531-1.872-.523-.583-.98-1.222-1.516-1.793-.425-.45-.836-.912-1.238-1.381-.32-.368-.481-.841-.789-1.217a10.127,10.127,0,0,1-.786-1.042c-.181-.315-.57-.415-.766-.715s-.464-.531-.679-.811c-.29-.448-.85-.561-1.295-.8a2.782,2.782,0,0,1-.821-.747c-.232-.243-.585-.283-.864-.45a5.462,5.462,0,0,1-.692-.524c-.33-.278-.521-.7-.911-.912a13.713,13.713,0,0,1-1.754-1.217,20.516,20.516,0,0,0-1.825-.971c-.3-.193-.6-.39-.912-.573-.482-.288-.889-.683-1.382-.954a10.918,10.918,0,0,1-1.52-1.107c-.347-.268-.483-.734-.869-.957a5.168,5.168,0,0,1-1.581-1.212,5.271,5.271,0,0,1-.656-.85c-.139-.291.072-.578.2-.827.134-.2.24-.487.512-.529.329-.085.663-.151.989-.25a9.031,9.031,0,0,1,1.581-.1c.409-.2.727-.539,1.128-.752C63.549-367.922,63.825-367.849,64.073-367.867Z" transform="translate(-58.868 368.054)"/>
      </g>
    </g>
  </g>
</svg>
