<svg xmlns="http://www.w3.org/2000/svg" xmlns:xlink="http://www.w3.org/1999/xlink" width="36" height="40" viewBox="0 0 36 40">
  <defs>
    <style>
      .cls-1 {
        fill: #fff;
      }

      .cls-2 {
        clip-path: url(#clip-path);
      }
    </style>
    <clipPath id="clip-path">
      <rect id="矩形_140" data-name="矩形 140" class="cls-1" width="36" height="40" transform="translate(0 0)"/>
    </clipPath>
  </defs>
  <g id="组_192" data-name="组 192" transform="translate(-274.614 885.537)">
    <g id="组_191" data-name="组 191" class="cls-2" transform="translate(274.614 -885.537)">
      <g id="组_190" data-name="组 190" transform="translate(0 0)">
        <path id="路径_811" data-name="路径 811" class="cls-1" d="M369.288-885.15a7.579,7.579,0,0,1,3.511-.309,5.633,5.633,0,0,1,4.142,2.862,1.851,1.851,0,0,1-.192,2.169,1.216,1.216,0,0,1-1.517-.823,4.08,4.08,0,0,0-2.7-2.5,5.5,5.5,0,0,0-3.455.24,16.21,16.21,0,0,0-6.617,4.378,44.123,44.123,0,0,0-3.13,3.959c-.721,1.057-1.51,2.065-2.209,3.137a7.853,7.853,0,0,1,.7-1.551,31.92,31.92,0,0,1,5.6-7.875A14.136,14.136,0,0,1,369.288-885.15Z" transform="translate(-345.555 885.537)"/>
        <g id="组_189" data-name="组 189" transform="translate(0 5.4)">
          <path id="路径_812" data-name="路径 812" class="cls-1" d="M300.438-847.579a12.522,12.522,0,0,1,5.789.322,5.971,5.971,0,0,1,3.9,3.756,6.485,6.485,0,0,1,.074,4.719,7.9,7.9,0,0,1-2.487,3.385,15.476,15.476,0,0,1-6.277,2.911,21.111,21.111,0,0,1-6.323.375,15.6,15.6,0,0,1-3.761-.733,6.708,6.708,0,0,1-1.839-.732,15.069,15.069,0,0,0,1.483.314,30.379,30.379,0,0,0,7.7.223,11.274,11.274,0,0,0,5.8-2.2,9.1,9.1,0,0,0,2.743-3.906,5.134,5.134,0,0,0-.506-4.338,5.124,5.124,0,0,0-3.88-2.225,16.632,16.632,0,0,0-6.037.386,16.85,16.85,0,0,0-8.493,5.165,16.4,16.4,0,0,0-2.945,4.268,3.287,3.287,0,0,1,1.5,2.532,4.881,4.881,0,0,1-.594,2.565,3.321,3.321,0,0,0,3.143-.516c.4-.275.715-.645,1.091-.947.876-.15,1.48.69,2.016,1.265a12.064,12.064,0,0,1,2.4,7.354,13.185,13.185,0,0,1-2.673,7.925,12.227,12.227,0,0,1-2.157,2.385c-.149.122-.37.23-.547.1-.195-.266-.038-.593.126-.828a28.96,28.96,0,0,0,2.852-4.655,10.733,10.733,0,0,0,.974-6.724,14.1,14.1,0,0,0-2.035-4.531,6.142,6.142,0,0,1-4.2,1.481,3.814,3.814,0,0,1-2.093-.932,6.292,6.292,0,0,1-2.506,1.654,5.6,5.6,0,0,1-4.363-1.008,4.038,4.038,0,0,1-1.647-1.883,2.136,2.136,0,0,1,.314-1.644,6.828,6.828,0,0,1,1.728-1.8,12.11,12.11,0,0,1,2.673-1.867,15.341,15.341,0,0,0-.784-1.74,12.222,12.222,0,0,0-3.272-3.934c-.489-.3-1.152-.655-1.7-.319a.72.72,0,0,0,.217,1.252,3.428,3.428,0,0,0,1.149-.276,1.822,1.822,0,0,1-1.067.871,1.212,1.212,0,0,1-1.3-1.391,1.481,1.481,0,0,1,1.44-1.217,5.7,5.7,0,0,1,3.067,1.8,12.539,12.539,0,0,1,3.1,4.6c.252-.04.5-.077.757-.116a13.58,13.58,0,0,0,.9-5.656,2.731,2.731,0,0,0-.83-2.127c-.557-.43-1.4.57-.882,1.049a8.942,8.942,0,0,0,.934.592c-.5.04-1.12.127-1.483-.32a1.243,1.243,0,0,1,.342-1.886,1.355,1.355,0,0,1,1.6.193,4.471,4.471,0,0,1,.956,2.809,15.707,15.707,0,0,1-.545,5.407c.308.074.617.157.924.242a22.418,22.418,0,0,1,4.15-5.7,17.2,17.2,0,0,1,5.608-4.02A24.489,24.489,0,0,1,300.438-847.579ZM281.7-835.04a1,1,0,0,0-.359,1.591.969.969,0,0,0,1.676-.393A.991.991,0,0,0,281.7-835.04Z" transform="translate(-274.614 847.763)"/>
        </g>
        <path id="路径_813" data-name="路径 813" class="cls-1" d="M339.977-711.264c.324-.3.778.139.669.518a8.908,8.908,0,0,0,2.711,6.667,6.6,6.6,0,0,0,3.848,2.069c.359.053.186.543-.08.6a3.146,3.146,0,0,1-2.583-.315,8.5,8.5,0,0,1-2.159-1.648,10.244,10.244,0,0,1-2.656-4.524,10.881,10.881,0,0,1-.105-2.4A1.4,1.4,0,0,1,339.977-711.264Z" transform="translate(-330.485 736.266)"/>
        <path id="路径_814" data-name="路径 814" class="cls-1" d="M360.511-700.077a3.149,3.149,0,0,1,2.007.05c.006.21-.2.273-.349.355-.72.356-1.542.372-2.283.668a20.461,20.461,0,0,0-3.263,1.51c-.24.134-.514.326-.793.2a.616.616,0,0,1,.086-.64A4.059,4.059,0,0,1,357.4-699,16.7,16.7,0,0,1,360.511-700.077Z" transform="translate(-344.4 726.714)"/>
        <path id="路径_815" data-name="路径 815" class="cls-1" d="M365.894-685.875a13.378,13.378,0,0,1,3.451-1.337c.423-.066.949-.132,1.245.265a7.976,7.976,0,0,1-1.751.652,16.548,16.548,0,0,0-2.417,1.087,17.242,17.242,0,0,1-1.548.889.382.382,0,0,1-.115-.578A2.856,2.856,0,0,1,365.894-685.875Z" transform="translate(-352.053 715.609)"/>
        <path id="路径_816" data-name="路径 816" class="cls-1" d="M375.594-671.852a10.749,10.749,0,0,1,3.283-1.388,2.853,2.853,0,0,1,.9,0c-.083.375-.481.446-.782.556a15.745,15.745,0,0,0-3.785,1.831C374.939-671.25,375.273-671.637,375.594-671.852Z" transform="translate(-361.022 703.625)"/>
      </g>
    </g>
  </g>
</svg>
