<svg xmlns="http://www.w3.org/2000/svg" width="120" height="120" viewBox="0 0 120 120">
  <defs>
    <style>
      .cls-1 {
        fill: #fff;
      }

      .cls-2 {
        font-size: 18px;
        font-family: PingFang SC Medium, PingFang SC;
      }

      .cls-3 {
        fill: #fed536;
      }

      .cls-4 {
        fill: #361b13;
      }
    </style>
  </defs>
  <g id="组_212" data-name="组 212" transform="translate(-799 -157)">
    <rect id="矩形_139" data-name="矩形 139" class="cls-1" width="120" height="120" rx="10" transform="translate(799 157)"/>
    <text id="蜜蜂付" class="cls-2" transform="translate(832 242)"><tspan x="0" y="0">蜜蜂付</tspan></text>
    <g id="组_196" data-name="组 196" transform="translate(-71.454 124.4)">
      <g id="组_194" data-name="组 194" transform="translate(911.454 52.6)">
        <path id="路径_817" data-name="路径 817" class="cls-3" d="M911.468,63.453q9.418-5.4,18.8-10.853,9.35,5.413,18.712,10.808c.148.077.067.291.1.426q-.007,10.672,0,21.346-9.4,5.444-18.815,10.869c-6.266-3.634-12.55-7.242-18.817-10.875C911.475,77.934,911.446,70.693,911.468,63.453Zm23.815-3.023a11.553,11.553,0,0,0-4.784,2.944,25.507,25.507,0,0,0-4.559,6.29,6.209,6.209,0,0,0-.571,1.239c.57-.857,1.213-1.662,1.8-2.506a35.344,35.344,0,0,1,2.55-3.162,13.23,13.23,0,0,1,5.392-3.5,4.561,4.561,0,0,1,2.815-.192,3.3,3.3,0,0,1,2.2,2,.994.994,0,0,0,1.236.658,1.456,1.456,0,0,0,.156-1.732,4.59,4.59,0,0,0-3.375-2.286A6.292,6.292,0,0,0,935.283,60.43Zm1.7,4.152a20.251,20.251,0,0,0-4.7,1.382,14.008,14.008,0,0,0-4.569,3.211,17.929,17.929,0,0,0-3.382,4.553c-.25-.067-.5-.134-.753-.193a12.312,12.312,0,0,0,.444-4.319,3.527,3.527,0,0,0-.779-2.244,1.121,1.121,0,0,0-1.305-.154.982.982,0,0,0-.279,1.506c.3.357.8.288,1.208.256a7.307,7.307,0,0,1-.761-.473c-.425-.383.265-1.182.718-.838a2.159,2.159,0,0,1,.676,1.7,10.656,10.656,0,0,1-.734,4.518c-.206.031-.411.061-.617.093A10.008,10.008,0,0,0,919.63,69.9a4.663,4.663,0,0,0-2.5-1.438,1.2,1.2,0,0,0-1.173.972.977.977,0,0,0,1.056,1.111,1.478,1.478,0,0,0,.869-.7,2.837,2.837,0,0,1-.936.22.571.571,0,0,1-.177-1c.45-.268.99.013,1.389.255a9.811,9.811,0,0,1,2.666,3.143,12.129,12.129,0,0,1,.638,1.39,9.874,9.874,0,0,0-2.178,1.492,5.5,5.5,0,0,0-1.408,1.441,1.679,1.679,0,0,0-.256,1.313,3.246,3.246,0,0,0,1.342,1.5,4.636,4.636,0,0,0,3.555.805,5.135,5.135,0,0,0,2.042-1.321,3.137,3.137,0,0,0,1.705.745,5.066,5.066,0,0,0,3.419-1.183,11.156,11.156,0,0,1,1.658,3.619,8.425,8.425,0,0,1-.794,5.371,23.063,23.063,0,0,1-2.324,3.718c-.134.187-.261.449-.1.661a.372.372,0,0,0,.445-.078,9.842,9.842,0,0,0,1.758-1.9,10.4,10.4,0,0,0,2.178-6.33,9.511,9.511,0,0,0-1.955-5.875c-.436-.459-.929-1.131-1.642-1.011-.306.241-.565.537-.888.756a2.75,2.75,0,0,1-2.56.412,3.837,3.837,0,0,0,.484-2.049,2.617,2.617,0,0,0-1.225-2.023,13.1,13.1,0,0,1,2.4-3.409,13.819,13.819,0,0,1,11.838-4.435,4.193,4.193,0,0,1,3.161,1.777,4.031,4.031,0,0,1,.412,3.465,7.272,7.272,0,0,1-2.235,3.12,9.294,9.294,0,0,1-4.722,1.755,25.237,25.237,0,0,1-6.272-.178c-.409-.053-.807-.159-1.208-.251a5.526,5.526,0,0,0,1.5.585,12.934,12.934,0,0,0,3.064.586,17.539,17.539,0,0,0,5.152-.3,12.726,12.726,0,0,0,5.114-2.325,6.321,6.321,0,0,0,2.026-2.7,5.086,5.086,0,0,0-.061-3.77,4.823,4.823,0,0,0-3.179-3A10.4,10.4,0,0,0,936.987,64.582ZM923.68,80.092a1.105,1.105,0,0,0-.29.771,8.522,8.522,0,0,0,.086,1.921,8.149,8.149,0,0,0,2.164,3.613,6.91,6.91,0,0,0,1.759,1.317,2.608,2.608,0,0,0,2.1.251c.217-.048.357-.44.065-.482a5.413,5.413,0,0,1-3.135-1.653,7.044,7.044,0,0,1-2.209-5.325C924.313,80.2,923.943,79.851,923.68,80.092Zm5.393,1.306a13.787,13.787,0,0,0-2.531.865,3.308,3.308,0,0,0-1.214.843.485.485,0,0,0-.07.512c.227.1.451-.049.646-.156a16.833,16.833,0,0,1,2.659-1.206c.6-.236,1.273-.249,1.86-.533.122-.065.289-.115.284-.283A2.614,2.614,0,0,0,929.072,81.4Zm-1.849,2.474a2.314,2.314,0,0,0-.924.781.3.3,0,0,0,.094.461,14.119,14.119,0,0,0,1.261-.71,13.618,13.618,0,0,1,1.969-.868,6.58,6.58,0,0,0,1.426-.521c-.241-.316-.669-.264-1.014-.211A11.029,11.029,0,0,0,927.223,83.873Zm.6,1.629c-.262.171-.533.481-.316.8a12.936,12.936,0,0,1,3.083-1.463c.246-.088.57-.145.637-.444a2.369,2.369,0,0,0-.73,0A8.848,8.848,0,0,0,927.818,85.5Z" transform="translate(-911.454 -52.6)"/>
      </g>
      <path id="路径_818" data-name="路径 818" class="cls-3" d="M997.413,244.7a.8.8,0,1,1-.292,1.271A.793.793,0,0,1,997.413,244.7Z" transform="translate(-75.697 -170.098)"/>
      <path id="路径_819" data-name="路径 819" class="cls-4" d="M1043.208,118.766a6.292,6.292,0,0,1,2.861-.247,4.59,4.59,0,0,1,3.375,2.286,1.456,1.456,0,0,1-.156,1.732.994.994,0,0,1-1.236-.658,3.3,3.3,0,0,0-2.2-2,4.561,4.561,0,0,0-2.815.192,13.23,13.23,0,0,0-5.391,3.5,35.366,35.366,0,0,0-2.55,3.162c-.587.844-1.23,1.649-1.8,2.506a6.215,6.215,0,0,1,.571-1.239,25.506,25.506,0,0,1,4.559-6.29A11.552,11.552,0,0,1,1043.208,118.766Z" transform="translate(-107.925 -58.336)"/>
      <g id="组_195" data-name="组 195" transform="translate(915.946 64.435)">
        <path id="路径_820" data-name="路径 820" class="cls-4" d="M971.828,156.378a10.4,10.4,0,0,1,4.717.257,4.823,4.823,0,0,1,3.18,3,5.085,5.085,0,0,1,.06,3.77,6.32,6.32,0,0,1-2.026,2.7,12.726,12.726,0,0,1-5.114,2.325,17.539,17.539,0,0,1-5.152.3,12.933,12.933,0,0,1-3.064-.586,5.527,5.527,0,0,1-1.5-.585c.4.092.8.2,1.208.251a25.236,25.236,0,0,0,6.272.178,9.294,9.294,0,0,0,4.722-1.755,7.272,7.272,0,0,0,2.235-3.12,4.031,4.031,0,0,0-.412-3.465,4.193,4.193,0,0,0-3.161-1.777,13.819,13.819,0,0,0-11.838,4.435,13.1,13.1,0,0,0-2.4,3.409,2.618,2.618,0,0,1,1.225,2.023,3.838,3.838,0,0,1-.484,2.049,2.75,2.75,0,0,0,2.56-.412c.323-.219.582-.515.889-.756.714-.12,1.206.552,1.642,1.011a9.512,9.512,0,0,1,1.955,5.875,10.4,10.4,0,0,1-2.178,6.33,9.843,9.843,0,0,1-1.758,1.9.372.372,0,0,1-.445.078c-.159-.212-.031-.474.1-.661a23.058,23.058,0,0,0,2.324-3.718,8.424,8.424,0,0,0,.794-5.371,11.154,11.154,0,0,0-1.658-3.619,5.066,5.066,0,0,1-3.419,1.183,3.137,3.137,0,0,1-1.705-.745,5.135,5.135,0,0,1-2.042,1.321,4.636,4.636,0,0,1-3.555-.805,3.246,3.246,0,0,1-1.342-1.5,1.679,1.679,0,0,1,.256-1.313,5.5,5.5,0,0,1,1.408-1.441,9.874,9.874,0,0,1,2.178-1.492,12.129,12.129,0,0,0-.638-1.39A9.812,9.812,0,0,0,953,161.122c-.4-.242-.939-.523-1.389-.255a.571.571,0,0,0,.177,1,2.838,2.838,0,0,0,.937-.22,1.479,1.479,0,0,1-.869.7.977.977,0,0,1-1.056-1.111,1.2,1.2,0,0,1,1.173-.972,4.663,4.663,0,0,1,2.5,1.438A10.007,10.007,0,0,1,957,165.375c.206-.032.411-.062.617-.092a10.655,10.655,0,0,0,.734-4.518,2.159,2.159,0,0,0-.676-1.7c-.453-.344-1.143.456-.718.838a7.3,7.3,0,0,0,.76.473c-.41.032-.912.1-1.208-.256a.982.982,0,0,1,.279-1.506,1.121,1.121,0,0,1,1.305.154,3.527,3.527,0,0,1,.779,2.244,12.313,12.313,0,0,1-.444,4.319c.251.059.5.126.753.193a17.928,17.928,0,0,1,3.382-4.553,14.008,14.008,0,0,1,4.569-3.211A20.253,20.253,0,0,1,971.828,156.378Zm-15.27,10.016a.8.8,0,1,0,1.073.957A.793.793,0,0,0,956.558,166.394Z" transform="translate(-950.788 -156.231)"/>
      </g>
      <path id="路径_821" data-name="路径 821" class="cls-4" d="M1016.08,292.709c.264-.241.634.111.545.413a7.045,7.045,0,0,0,2.209,5.325,5.413,5.413,0,0,0,3.135,1.652c.292.042.152.434-.065.482a2.608,2.608,0,0,1-2.1-.251,6.91,6.91,0,0,1-1.759-1.317,8.148,8.148,0,0,1-2.164-3.613,8.522,8.522,0,0,1-.086-1.921A1.105,1.105,0,0,1,1016.08,292.709Z" transform="translate(-92.4 -212.617)"/>
      <path id="路径_822" data-name="路径 822" class="cls-4" d="M1035.808,303.888a2.614,2.614,0,0,1,1.635.04c0,.168-.162.218-.284.283-.587.284-1.256.3-1.86.533a16.826,16.826,0,0,0-2.659,1.206c-.2.107-.419.26-.646.156a.485.485,0,0,1,.07-.512,3.309,3.309,0,0,1,1.214-.843A13.788,13.788,0,0,1,1035.808,303.888Z" transform="translate(-106.735 -222.489)"/>
      <path id="路径_823" data-name="路径 823" class="cls-4" d="M1041.843,317.84a11.027,11.027,0,0,1,2.812-1.068c.345-.053.773-.105,1.014.211a6.579,6.579,0,0,1-1.426.521,13.62,13.62,0,0,0-1.969.868,14.107,14.107,0,0,1-1.261.71.3.3,0,0,1-.094-.461A2.314,2.314,0,0,1,1041.843,317.84Z" transform="translate(-114.62 -233.968)"/>
      <path id="路径_824" data-name="路径 824" class="cls-4" d="M1051.678,331.855a8.849,8.849,0,0,1,2.675-1.109,2.369,2.369,0,0,1,.73,0c-.067.3-.392.356-.637.444a12.943,12.943,0,0,0-3.084,1.463C1051.145,332.336,1051.417,332.026,1051.678,331.855Z" transform="translate(-123.86 -246.354)"/>
    </g>
  </g>
</svg>
