<svg xmlns="http://www.w3.org/2000/svg" width="120" height="120" viewBox="0 0 120 120">
  <g id="组_282" data-name="组 282" transform="translate(-1460 -186)">
    <rect id="矩形_183" data-name="矩形 183" width="120" height="120" rx="10" transform="translate(1460 186)" fill="rgba(0,0,0,0)"/>
    <text id="应为智能" transform="translate(1486 279)" fill="#1a1a1a" font-size="17" font-family="PingFang SC Regular, PingFang SC"><tspan x="0" y="0">应为智能</tspan></text>
    <g id="组_256" data-name="组 256" transform="translate(2.319 176.641)">
      <g id="组_255" data-name="组 255" transform="translate(1498.681 29.359)">
        <path id="路径_866" data-name="路径 866" d="M1506.7,29.412a3.3,3.3,0,0,1,.728-.052H1528.1a13.222,13.222,0,0,1,1.376.185,10.845,10.845,0,0,1,1.718.562,9.315,9.315,0,0,1,4.671,4.61,9.7,9.7,0,0,1,.672,2.142c.029.417.152.825.14,1.245q0,10.087,0,20.173a4.523,4.523,0,0,1-.032.752c-.012.266-.091.524-.1.791a9.1,9.1,0,0,1-2.895,5.211,8.954,8.954,0,0,1-4.815,2.255,4.452,4.452,0,0,1-1.11.074h-16.58c-1.337,0-2.673.006-4.01,0a9.109,9.109,0,0,1-1.081-.138,8.964,8.964,0,0,1-3.518-1.527,9.085,9.085,0,0,1-3.824-6.794,2.466,2.466,0,0,1-.035-.329v-16.7c0-1.3-.006-2.591,0-3.887a12.7,12.7,0,0,1,.213-1.454,8.917,8.917,0,0,1,.7-2.029,9.283,9.283,0,0,1,2.684-3.271,8.987,8.987,0,0,1,3.38-1.622C1506,29.5,1506.355,29.477,1506.7,29.412Zm-2.152,8.655a1.932,1.932,0,0,0-1.486,1.247,1.7,1.7,0,0,0-.048,1.094,2.385,2.385,0,0,0,.566.964c.167.163.352.305.519.468a47.97,47.97,0,0,0,6.667,5.022,16.584,16.584,0,0,0,3.126,1.426,13.331,13.331,0,0,0,1.917.451c.5.016,1,.1,1.5.09l1.985,0a3.247,3.247,0,0,0,.476-.055c.222-.046.452-.008.673-.064.361-.081.728-.138,1.085-.236a15.03,15.03,0,0,0,2.807-1.071,22.617,22.617,0,0,0,2.01-1.133,39.729,39.729,0,0,0,3.782-2.789c.682-.542,1.345-1.107,2-1.675a6.519,6.519,0,0,0,.62-.582,2.131,2.131,0,0,0,.5-1.137,2.19,2.19,0,0,0-.162-.922,1.957,1.957,0,0,0-1.269-1.057,1.812,1.812,0,0,0-1.386.18,6.169,6.169,0,0,0-1.042.818c-1.037.912-2.11,1.782-3.2,2.633a20.148,20.148,0,0,1-4.078,2.5,9.146,9.146,0,0,1-1.632.505,2.193,2.193,0,0,1-.571.09,9.716,9.716,0,0,1-2.44.119c-.361,0-.712-.1-1.07-.125a5.384,5.384,0,0,1-.975-.183,10.813,10.813,0,0,1-2.588-1.043,22.971,22.971,0,0,1-3.009-2.02c-1.158-.89-2.281-1.825-3.372-2.795a3.149,3.149,0,0,0-1.347-.735A2.078,2.078,0,0,0,1504.548,38.067Zm14.663,13.9c-1.041,0-2.081,0-3.122,0a.362.362,0,0,0-.045.153q0,3.224,0,6.448a1.718,1.718,0,0,0,.54,1.217,1.675,1.675,0,0,0,.686.456,1.942,1.942,0,0,0,1.775-.2c.125-.1.245-.217.363-.329a1.963,1.963,0,0,0,.478-1.357c-.006-2.125.01-4.251-.008-6.375C1519.659,51.959,1519.435,51.97,1519.212,51.968Z" transform="translate(-1498.681 -29.359)" fill="#00a5ef"/>
      </g>
    </g>
  </g>
</svg>
