<svg xmlns="http://www.w3.org/2000/svg" width="120" height="120" viewBox="0 0 120 120">
  <g id="爱亲母婴" transform="translate(-810 -380)">
    <rect id="矩形_144" data-name="矩形 144" width="120" height="120" rx="10" transform="translate(810 380)" fill="rgba(0,0,0,0)"/>
    <g id="组_242" data-name="组 242" transform="translate(834 302.828)">
      <g id="组_239" data-name="组 239" transform="translate(0 125.172)">
        <path id="路径_859" data-name="路径 859" d="M20.844,125.911c1.657-.15,3.265-.644,4.926-.739a6.208,6.208,0,0,1-.037,2.019,4.505,4.505,0,0,1-1.587.478c-6.716,1.1-13.545.764-20.315.706-1.184.129-1.142-2.2-.066-2.164C9.454,126.082,15.174,126.563,20.844,125.911Z" transform="translate(-1.725 -125.172)" fill="#fff"/>
        <path id="路径_860" data-name="路径 860" d="M83.042,125.29a10.415,10.415,0,0,1,3.111.008c.008.623.029,1.246.054,1.865,2.517-.008,5.03.017,7.543-.012.606.037,1.308-.1,1.828.3.162.623.42,1.931-.54,1.977-6.517.125-13.038,0-19.559.058a17.72,17.72,0,0,1-2.484-.141,11.814,11.814,0,0,1,.042-2.064c3.269-.253,6.55-.054,9.823-.112A4.67,4.67,0,0,1,83.042,125.29Z" transform="translate(-41.706 -125.173)" fill="#fff"/>
        <path id="路径_861" data-name="路径 861" d="M4.024,134a9.518,9.518,0,0,1,2.837.15,5.77,5.77,0,0,1,1.067,2.309c1.292.071,2.584.042,3.875.05-.262-.831-.49-1.67-.71-2.509a8.028,8.028,0,0,1,2.754.174,7.475,7.475,0,0,1,1.076,2.326c.955.025,1.915,0,2.87-.025a22.206,22.206,0,0,1,1.275-2.579,9.427,9.427,0,0,1,3.036.012,9.888,9.888,0,0,1-1.246,2.6,16.55,16.55,0,0,1,3.713.154c1.155.731.677,2.355.673,3.5a18.4,18.4,0,0,1-3.244.017c-.029-.532-.058-1.063-.1-1.591-5.973.037-11.946.012-17.919.008-.033.461-.091.918-.166,1.371-.876.544-2.006.187-2.982.208-.233-1.126-.594-2.737.557-3.481a12.018,12.018,0,0,1,3.369-.187C4.481,135.684,4.244,134.845,4.024,134Z" transform="translate(-0.348 -130.201)" fill="#fff"/>
        <path id="路径_862" data-name="路径 862" d="M75.219,138.529a3.767,3.767,0,0,1,3.173.029,13.439,13.439,0,0,1,.935,2.8c2.114.129,4.233.05,6.347.046.428-.972.453-2.21,1.238-2.966a5.045,5.045,0,0,1,3.14.075,13.569,13.569,0,0,1-.972,2.941c1.977-.033,3.958-.1,5.931.062a6.488,6.488,0,0,1,.037,2.139c-3.543.291-7.107-.083-10.646.2q.062,1.3.054,2.6c2.937.042,5.877-.066,8.81.046.972.025.893,1.666.378,2.139a19,19,0,0,1-3.734.112,9.719,9.719,0,0,0,2.953,5.167c.507.436,1.175.889,1.1,1.661.112.635.046,1.936-.935,1.516-3.452-1.279-5.117-5-6.1-8.291-.827-.033-1.653-.046-2.48-.046-.033,2.214.087,4.432-.062,6.637-.1.71-.328,1.72-1.167,1.844-1.778.1-3.564,0-5.35.042l-.05-1.234c.449-1.516,2.638-.046,3.223-1.383.22-1.944-.017-3.9.125-5.857q-1.458-.081-2.916-.025c-.839,2.65-2,5.362-4.179,7.19-.822.611-1.8,1.321-2.883,1.034a8.48,8.48,0,0,1,.116-2.176c.552-.694,1.342-1.142,1.907-1.823a12.926,12.926,0,0,0,2.048-4.253c-1.3-.087-2.716.278-3.958-.233a4.423,4.423,0,0,1-.008-1.952c3.273-.253,6.563-.046,9.84-.116q-.006-1.352-.021-2.7c-3.693-.087-7.41.224-11.082-.174.058-.71-.4-2.1.719-2.106,1.745-.116,3.493-.05,5.238,0A8.787,8.787,0,0,1,75.219,138.529Z" transform="translate(-39.964 -132.698)" fill="#fff"/>
        <path id="路径_863" data-name="路径 863" d="M8.037,147.373a21.6,21.6,0,0,1,3.319-.125c-.125.64-.282,1.271-.457,1.894,4.689.021,9.383-.12,14.072.079-.091.727.361,2.247-.86,2.073-4.706.145-9.429-.066-14.135.091A7.487,7.487,0,0,0,8.9,152.927c4.1.091,8.2-.1,12.286.087a2.03,2.03,0,0,1,1.533,3.161c-1.408,1.67-3.539,2.442-5.412,3.456a61.73,61.73,0,0,0,7.111,1.321c.864.266.428,1.391.432,2.039h-.582a46.828,46.828,0,0,1-10.164-2.127,102.849,102.849,0,0,1-10.2,2.127H2.746c.174-.652-.233-1.745.644-1.977,2.538-.561,5.18-.723,7.638-1.637a16.774,16.774,0,0,1-3.705-2.692,9.706,9.706,0,0,1,3.663-.021,28.687,28.687,0,0,1,3.1,1.632c1.94-.918,4.515-1.229,5.72-3.194-4.116-.108-8.232-.05-12.344-.033-2.106,2.492-4.3,5.279-7.464,6.426v-2.2a20.47,20.47,0,0,0,6.272-7.958,41.088,41.088,0,0,1-5.724-.154c-.374-.569-.133-1.317-.216-1.956,2.289-.183,4.586-.062,6.883-.108A6,6,0,0,1,8.037,147.373Z" transform="translate(0 -137.991)" fill="#fff"/>
      </g>
      <g id="组_241" data-name="组 241" transform="translate(59.044 125.185)">
        <g id="组_240" data-name="组 240">
          <path id="路径_864" data-name="路径 864" d="M140.271,133.959a6.519,6.519,0,0,1,5-8.639,6.45,6.45,0,0,1,7.443,5.636,53.209,53.209,0,0,1,.025,5.869,1.842,1.842,0,0,1-3.265.648A6.557,6.557,0,0,1,140.271,133.959Zm7.551-5.57a4.308,4.308,0,0,0-3.987.66,3.677,3.677,0,0,0-.029,5.479,3.608,3.608,0,0,0,5.715-1.358c.905-1.911-.852-3.655-.461-5.62C148.653,127.836,148.238,128.115,147.823,128.389Z" transform="translate(-139.853 -125.204)" fill="#fff"/>
        </g>
      </g>
    </g>
  </g>
</svg>
