<svg xmlns="http://www.w3.org/2000/svg" width="120" height="120" viewBox="0 0 120 120">
  <g id="沧州建投" transform="translate(-1330 -380)">
    <rect id="矩形_183" data-name="矩形 183" width="120" height="120" rx="10" transform="translate(1330 380)" fill="rgba(0,0,0,0)"/>
    <g id="组_307" data-name="组 307" transform="translate(0 21.5)">
      <path id="路径_875" data-name="路径 875" d="M6417.816,398.106s-15.545,6.263-17.078,13.832c-1.814,8.956,8.008,10.883,15.6,8.786,5.952-1.531,11.28-7.653,11.28-7.653s-9.013,7.369-16.042,1.927.4-13.661,6.235-15.815A6.8,6.8,0,0,0,6417.816,398.106Z" transform="translate(-5032 14.394)" fill="#fff" stroke="#707070" stroke-width="0.1"/>
      <path id="路径_876" data-name="路径 876" d="M6418.506,386v30.586a17.091,17.091,0,0,0,9.013-3.911c-.113,0,0-21.314,0-21.314Z" transform="translate(-5032 13.5)" fill="#fff" stroke="#707070" stroke-width="0.1"/>
      <path id="路径_877" data-name="路径 877" d="M6428.325,396.5v1.352s8.562,2.275,8.26,8.715-5.8,12.209-17.441,16.771c5.467.034,23.75-5.745,24.033-17.366-.221-9.285-12.675-9.472-12.675-9.472Z" transform="translate(-5032 14.003)" fill="#fff" stroke="#707070" stroke-width="0.1"/>
    </g>
  </g>
</svg>
