<svg xmlns="http://www.w3.org/2000/svg" xmlns:xlink="http://www.w3.org/1999/xlink" width="120" height="120" viewBox="0 0 120 120">
  <defs>
    <clipPath id="clip-path">
      <rect id="SVGID" width="40" height="36" fill="none"/>
    </clipPath>
  </defs>
  <g id="组_280" data-name="组 280" transform="translate(-1720 -186)">
    <rect id="矩形_183" data-name="矩形 183" width="120" height="120" rx="10" transform="translate(1720 186)" fill="rgba(0,0,0,0)"/>
    <text id="前海智绘" transform="translate(1746 279)" fill="#1a1a1a" font-size="17" font-family="PingFang SC Regular, PingFang SC"><tspan x="0" y="0">前海智绘</tspan></text>
    <g id="组_279" data-name="组 279" transform="translate(1331.789 175.775)">
      <g id="组_278" data-name="组 278" transform="translate(428.211 31.225)" clip-path="url(#clip-path)">
        <path id="路径_871" data-name="路径 871" d="M480.647,31.225c.5.154,1,.312,1.5.465l.087,1.042,1,.692c3.465,0,6.93-.051,10.395.021,1.8.017,3.752,1.251,3.774,3.169.087,6.1.017,12.209.026,18.316a3.3,3.3,0,0,1-2.869,3.344c-2.294.38-4.64.09-6.956.226-1.693.12-3.687-.06-4.793-1.495-.958-1.14-.535-2.72-.653-4.07.605-.009,1.21-.034,1.811.013.557,1.089.013,2.81,1.415,3.369,2.185.252,4.4.03,6.59.111,1.058-.068,2.329.2,3.156-.632a20.982,20.982,0,0,0,.226-4.706c-.048-5.031.122-10.07-.1-15.1-4.066-1.1-8.38-.073-12.528-.577a4.2,4.2,0,0,1-2.742-3.13C480.155,32.019,480.482,31.49,480.647,31.225Z" transform="translate(-457.451 -31.225)" fill="#f29907"/>
        <path id="路径_872" data-name="路径 872" d="M443.62,31.794c.2-.154.618-.465.827-.619.3.145.914.44,1.219.585-.165,1.772-1.384,3.63-3.361,3.69-3.478.132-6.96-.047-10.438.056a1.669,1.669,0,0,0-1.606,1.87c-.065,5.27.013,10.54-.044,15.814.048,1.072-.192,2.609,1.119,3.062a24.566,24.566,0,0,0,3.966.145c1.95-.047,3.974.226,5.846-.47.152-1.021.313-2.041.457-3.062.6-.043,1.315-.423,1.763.167.078,1.119.017,2.238.013,3.361-.962,1.055-2.116,2.2-3.691,2.084-2.616-.064-5.232.021-7.844-.1a3.58,3.58,0,0,1-3.609-3.446c-.03-5.991-.039-11.987,0-17.979A3.659,3.659,0,0,1,431.8,33.43c3.487-.141,6.978.056,10.465-.073C443.167,33.468,443.281,32.366,443.62,31.794Z" transform="translate(-428.211 -31.196)" fill="#f29907"/>
        <g id="组_277" data-name="组 277" transform="translate(8.739 6.796)">
          <path id="路径_873" data-name="路径 873" d="M454.238,51.693a5.238,5.238,0,0,1,5.92-4.493c3.16.124,4.74,3.433,4.732,6.184.718,1.191,1.693,2.434,1.476,3.907-.2,1.187-1.2,1.977-2.007,2.789-.361,1.913-1.036,4.13.052,5.919,1.088,1.631,3.208,1.845,4.993,2.169,1.158,1.08,2.037,2.814,1.01,4.27-1.114,2.118-4.04,1.332-5.689.282l.052-1.708a3.426,3.426,0,0,1,2.821.948l1.1-.068c0-.675,0-1.349,0-2.02-.688-.051-1.376-.1-2.059-.128a20.828,20.828,0,0,1-2.869-1.392,29.684,29.684,0,0,1-.3,5.9c-.579-.064-1.158-.132-1.732-.2-.083-2.584.1-5.172.022-7.755a1.849,1.849,0,0,0-1.158-1.823c-.905-.525-1.894.068-2.782.307-.932,2.848-.313,5.893-.54,8.827-.139.2-.409.594-.548.79-.361-.009-.723-.017-1.08-.021a57.793,57.793,0,0,1-.157-6.017,11.759,11.759,0,0,1-4.584,1.619c-1,.243-.448,1.379-.544,2.084a4.517,4.517,0,0,0,2.446-.867c.387-.047.775-.09,1.158-.128a9.732,9.732,0,0,1-.17,1.627,3.125,3.125,0,0,1-5.245-.653c-.575-.927-.057-1.96.139-2.912.457-.325.91-.649,1.362-.978a16.4,16.4,0,0,0,2.864-.632,9.9,9.9,0,0,0,2.264-2.041,10.979,10.979,0,0,0-.788-5.21c-.509-1-1.55-1.8-1.554-3C452.541,55.255,454.2,53.671,454.238,51.693Zm8.745,4.984c-.044.641-.078,1.277-.1,1.917a11.5,11.5,0,0,0,1.7-.9,9.514,9.514,0,0,0,.309-1.708C464.255,56.211,463.619,56.446,462.984,56.677Zm-8.188,1c.553.641,1.463.6,2.229.769-.239-.585-.488-1.17-.731-1.755-.579-.256-1.158-.508-1.741-.756A9.388,9.388,0,0,0,454.8,57.681Z" transform="translate(-448.286 -47.138)" fill="#f29907"/>
        </g>
        <path id="路径_874" data-name="路径 874" d="M472.077,91.912c.017-.8,1.1-.769,1.667-.927.187,2.806.078,5.624.1,8.438a3.763,3.763,0,0,1-.527,2.041l-1.293-.653C472.077,97.843,471.92,94.875,472.077,91.912Z" transform="translate(-452.942 -65.465)" fill="#f29907"/>
      </g>
    </g>
  </g>
</svg>
