<svg xmlns="http://www.w3.org/2000/svg" xmlns:xlink="http://www.w3.org/1999/xlink" width="120" height="120" viewBox="0 0 120 120">
  <defs>
    <clipPath id="clip-path">
      <rect id="SVGID" width="26" height="38" fill="#fff"/>
    </clipPath>
  </defs>
  <g id="禾控科技" transform="translate(-1590 -380)">
    <rect id="矩形_183" data-name="矩形 183" width="120" height="120" rx="10" transform="translate(1590 380)" fill="rgba(0,0,0,0)"/>
    <g id="组_261" data-name="组 261" transform="translate(1283.12 222.83)">
      <g id="组_260" data-name="组 260" transform="translate(353.88 198.17)" clip-path="url(#clip-path)">
        <g id="组_259" data-name="组 259" transform="translate(-0.005)">
          <path id="路径_867" data-name="路径 867" d="M388.434,198.2c3.119.1,6.243-.11,9.352.1.066.335.19,1.005.256,1.34-.977.191-2.271.01-2.849,1.043a19.825,19.825,0,0,0-.137,3.561q.021,13.891,0,27.782c.052.732-.085,1.637.555,2.158a10.2,10.2,0,0,0,2.361.517c-.043.369-.128,1.11-.166,1.479-3.114-.014-6.229-.019-9.338,0-.019-.5-.033-.991-.052-1.488a12.5,12.5,0,0,0,3.11-.857c.024-5.2,0-10.395.014-15.592,0-.967,0-1.938,0-2.91-.024-4.623.038-9.246-.038-13.87,0-.139.009-.421.014-.56l.014-.512a13.541,13.541,0,0,0-3.091-.742Z" transform="translate(-372.037 -198.186)" fill="#fff"/>
          <path id="路径_868" data-name="路径 868" d="M353.875,198.17c3.257.043,6.508.019,9.76.019v1.445a11.24,11.24,0,0,0-3.6.943c.095,5.724-.019,11.448.062,17.167q.007.818,0,1.637-.057,7.093-.024,14.195l.18.105c.095.043.289.134.389.182a7.438,7.438,0,0,0,3.038.79c-.024.378-.071,1.129-.095,1.508-3.233,0-6.466,0-9.7.01,0-.522-.009-1.039-.014-1.555,1.133-.067,3-.072,2.83-1.7.047-10.2-.014-20.412.028-30.615-.024-.833.1-1.9-.768-2.369a13.333,13.333,0,0,0-2.09-.249C353.87,199.3,353.875,198.548,353.875,198.17Z" transform="translate(-353.87 -198.17)" fill="#fff"/>
          <g id="组_258" data-name="组 258" transform="translate(6.224 2.718)">
            <path id="路径_869" data-name="路径 869" d="M367,220.706q6.463-8.55,13.249-16.856c0,.139-.009.421-.014.56-1.526,4.441-3.152,8.849-4.6,13.319,1.55.168,3.1.335,4.636.55,0,.972,0,1.943,0,2.91-4.219,5.231-8.485,10.428-12.727,15.636-.1-.048-.294-.139-.389-.182,1.91-4.609,3.8-9.222,5.693-13.836-1.953-.115-3.9-.278-5.849-.464Q367.007,221.524,367,220.706Z" transform="translate(-367 -203.85)" fill="#fff"/>
          </g>
        </g>
      </g>
    </g>
  </g>
</svg>
