<svg xmlns="http://www.w3.org/2000/svg" width="120" height="120" viewBox="0 0 120 120">
  <g id="组_286" data-name="组 286" transform="translate(-940 -186)">
    <rect id="矩形_144" data-name="矩形 144" width="120" height="120" rx="10" transform="translate(940 186)" fill="rgba(0,0,0,0)"/>
    <text id="鸿业远图" transform="translate(966 279)" fill="#1a1a1a" font-size="17" font-family="PingFang SC Regular, PingFang SC"><tspan x="0" y="0">鸿业远图</tspan></text>
    <g id="组_243" data-name="组 243" transform="translate(990.959 112.978)">
      <path id="路径_865" data-name="路径 865" d="M5.61,95.125a18.518,18.518,0,0,1,15.851,4.582,19.653,19.653,0,0,1,6.545,13c.67,10.369-8.468,20.334-18.934,20.1-9.666.267-18.395-8.125-18.978-17.7C-10.65,105.818-3.516,96.748,5.61,95.125Zm1.222,7.217a5.8,5.8,0,0,0-3.474,5.4,5.644,5.644,0,1,0,11.2-1.088C14.048,103.25,10.027,100.764,6.832,102.343ZM-6.729,116.4c1.272,1.063,2.432,2.536,4.181,2.735,2.016.354,4.188.1,6.086.982,2.24,1.287,3.7,3.494,5.323,5.439,1.588-1.908,3.052-4.078,5.3-5.265,2.283-1.038,4.907-.678,7.252-1.492a17.785,17.785,0,0,0,3.288-2c-2.934-.361-5.776-1.343-8.729-1.48-3.183.186-5.193,3-7.048,5.247-1.83-2.319-3.915-5.433-7.271-5.16C-1.133,115.789-3.888,116.492-6.729,116.4Z" transform="translate(0 0)" fill="#2c7bc9"/>
    </g>
  </g>
</svg>
