<svg xmlns="http://www.w3.org/2000/svg" width="120" height="120" viewBox="0 0 120 120">
  <defs>
    <style>
      .cls-1 {
        fill: #fff;
      }

      .cls-2 {
        font-size: 18px;
        font-family: PingFang SC Medium, PingFang SC;
      }

      .cls-3 {
        fill: #259c3b;
      }

      .cls-4 {
        fill: #9fbf1e;
      }
    </style>
  </defs>
  <g id="组_213" data-name="组 213" transform="translate(-599 -157)">
    <rect id="矩形_138" data-name="矩形 138" class="cls-1" width="120" height="120" rx="10" transform="translate(599 157)"/>
    <text id="小灵狗出行" class="cls-2" transform="translate(614 242)"><tspan x="0" y="0">小灵狗出行</tspan></text>
    <g id="组_197" data-name="组 197" transform="translate(227.805 3.976)">
      <path id="路径_806" data-name="路径 806" class="cls-3" d="M253.593,123.881q3.244-.011,6.489-.014c.491.812.974,1.624,1.449,2.451.862-.388,1.732-.77,2.6-1.158-.186,1.518.617,3.538-1,4.555-.141,6.575-.022,13.15-.052,19.718a11.887,11.887,0,0,1-1.2,4.591c-2.133-.021-4.266-.014-6.4-.021,1.62-3.03,1.732-6.406,1.524-9.718-1.62.713-3.226,1.455-4.846,2.189-.007-1.3,0-2.585,0-3.877,1.62-.749,3.248-1.476,4.861-2.239,0-2.677.007-5.346-.007-8.023-1.628.7-3.226,1.441-4.846,2.161-.007-1.278-.015-2.557-.03-3.835,1.4-.643,2.78-1.292,4.192-1.914A38.577,38.577,0,0,0,253.593,123.881Z" transform="translate(159.059 54.157)"/>
      <path id="路径_807" data-name="路径 807" class="cls-3" d="M271.954,123.935c1.932-.007,3.872-.007,5.8,0-.134.516-.409,1.547-.55,2.062h18.783q.011,11.366.007,22.725a22.638,22.638,0,0,1-.884,5.3c-2.111,0-4.222-.007-6.333-.007a22.257,22.257,0,0,0,1.189-6.01c0-6.243-.015-12.485-.007-18.728-4.512.057-9.031-.162-13.535.085-.164.318-.491.967-.654,1.285-1.918.028-3.828.021-5.738.014Q271.028,127.307,271.954,123.935Z" transform="translate(155.196 54.141)"/>
      <g id="组_185" data-name="组 185" transform="translate(425.153 185.994)">
        <path id="路径_808" data-name="路径 808" class="cls-4" d="M269.411,147.42c-1.018-5.612,4.088-11.216,9.774-10.666,5.716.171,10.1,6.37,8.436,11.826-1.635,4.891-5.314,8.756-9.046,12.167C274.711,157.008,270.585,152.861,269.411,147.42Zm7.054-5.82a4.9,4.9,0,0,0-.654,8.332c2.772,2.185,7.314.178,7.648-3.3C284.143,142.953,279.75,139.72,276.465,141.6Z" transform="translate(-269.281 -136.717)"/>
      </g>
    </g>
  </g>
</svg>
