<svg xmlns="http://www.w3.org/2000/svg" width="120" height="120" viewBox="0 0 120 120">
  <defs>
    <style>
      .cls-1 {
        fill: #fff;
      }

      .cls-2 {
        fill: #0b68a7;
      }

      .cls-3 {
        fill: #49a9df;
      }

      .cls-4 {
        font-size: 18px;
        font-family: PingFang SC Medium, PingFang SC;
      }
    </style>
  </defs>
  <g id="组_214" data-name="组 214" transform="translate(-399 -157)">
    <rect id="矩形_131" data-name="矩形 131" class="cls-1" width="120" height="120" rx="10" transform="translate(399 157)"/>
    <g id="组_180" data-name="组 180" transform="translate(438 182.543)">
      <path id="路径_787" data-name="路径 787" class="cls-2" d="M16.81,1.6c.719.064,1.442.117,2.161.177a15.937,15.937,0,0,0,1.96,4.973A32.309,32.309,0,0,0,33.944,18.233a25.825,25.825,0,0,1-2.451,2.511c-6.2-3.728-11.827-9.007-14.486-15.868.6-1.008,1.231-1.99,1.874-2.97C18.178,1.792,17.517,1.693,16.81,1.6Z" transform="translate(-10.28 -0.084)"/>
      <path id="路径_788" data-name="路径 788" class="cls-3" d="M6.079,1.457c.129.016.388.043.518.055.724.061,1.441.119,2.111.173C7.764,3.17,7.374,3.733,6.789,4.72c-2.343,4.238-4.007,9.231-2.931,14.1a7.205,7.205,0,0,0,5.914,5.834c4.187.535,8.119-1.742,11.168-4.4a25.251,25.251,0,0,0,2.394-2.457,27.106,27.106,0,0,0,6.4-13.968c1.966.024,3.9.37,5.863.507l.177.165a40.382,40.382,0,0,1-1.287,5.075,32.4,32.4,0,0,1-5.922,10.092,36.391,36.391,0,0,1-2.81,2.909c-3.595,3.235-7.943,5.873-12.789,6.593a11.4,11.4,0,0,1-9.257-2.319C1.236,24.715.161,21.408,0,18.228V16.9C.294,11.25,2.778,5.962,6.079,1.457Z" transform="translate(0 0)"/>
      <path id="路径_789" data-name="路径 789" class="cls-2" d="M75.886,9.187c3.057,3.4,5.777,7.5,6.191,12.164a6.868,6.868,0,0,1-3.989,7.026c-4.005,1.7-8.521.663-12.458-.719a37.219,37.219,0,0,0,2.876-2.973c1.84.213,3.812.478,5.552-.333a4.206,4.206,0,0,0,2.479-3.8c.1-2.23-.94-4.274-1.968-6.179A41.2,41.2,0,0,0,75.886,9.187Z" transform="translate(-40.113 -4.625)"/>
      <path id="路径_790" data-name="路径 790" class="cls-2" d="M76.01,62.867" transform="translate(-46.079 -37.349)"/>
      <g id="组_179" data-name="组 179" transform="translate(23.337 25.875)">
        <path id="路径_791" data-name="路径 791" class="cls-2" d="M60.2,63.853h.4v2.126a1.122,1.122,0,0,0,.227.766.957.957,0,0,0,.752.27.967.967,0,0,0,.752-.27,1.147,1.147,0,0,0,.227-.766V63.853h.4v2.121A1.427,1.427,0,0,1,62.61,67a1.654,1.654,0,0,1-2.059,0,1.429,1.429,0,0,1-.347-1.031Z" transform="translate(-60.204 -63.814)"/>
        <path id="路径_792" data-name="路径 792" class="cls-2" d="M85.953,63.853h.4v2.126a1.122,1.122,0,0,0,.227.766,1.181,1.181,0,0,0,1.5,0,1.147,1.147,0,0,0,.227-.766V63.853h.4v2.121A1.425,1.425,0,0,1,88.359,67a1.654,1.654,0,0,1-2.058,0,1.427,1.427,0,0,1-.347-1.031Z" transform="translate(-75.609 -63.814)"/>
        <path id="路径_793" data-name="路径 793" class="cls-2" d="M70.7,67.266h-.4V65.14a1.124,1.124,0,0,0-.227-.766,1.181,1.181,0,0,0-1.5,0,1.147,1.147,0,0,0-.227.766v2.126h-.4V65.144a1.425,1.425,0,0,1,.342-1.027,1.654,1.654,0,0,1,2.058,0,1.429,1.429,0,0,1,.347,1.031Z" transform="translate(-64.838 -63.756)"/>
        <path id="路径_794" data-name="路径 794" class="cls-2" d="M76.19,64.031a.25.25,0,0,1,.087.2.282.282,0,0,1-.087.207.3.3,0,0,1-.415,0,.28.28,0,0,1-.082-.207.248.248,0,0,1,.082-.2.3.3,0,0,1,.415,0Z" transform="translate(-69.471 -63.871)"/>
        <rect id="矩形_132" data-name="矩形 132" class="cls-2" width="0.386" height="2.492" transform="translate(6.319 1.017)"/>
        <rect id="矩形_133" data-name="矩形 133" class="cls-2" width="2.435" height="0.328" transform="translate(7.37 1.63)"/>
        <path id="路径_795" data-name="路径 795" class="cls-2" d="M95.957,65.119a.982.982,0,0,0-.834-.4.9.9,0,0,0-.824.525V63.769h-.386v3.51h.362v-.41a.87.87,0,0,0,.829.477,1.032,1.032,0,0,0,.853-.4,1.484,1.484,0,0,0,.279-.926A1.452,1.452,0,0,0,95.957,65.119Zm-.294,1.615a.7.7,0,0,1-.608.294.668.668,0,0,1-.583-.29,1.132,1.132,0,0,1-.188-.679v-.048a1.082,1.082,0,0,1,.212-.7.639.639,0,0,1,.545-.27.705.705,0,0,1,.613.289,1.144,1.144,0,0,1,.188.7A1.266,1.266,0,0,1,95.663,66.734Z" transform="translate(-80.371 -63.764)"/>
        <path id="路径_796" data-name="路径 796" class="cls-2" d="M101.006,64.031a.251.251,0,0,1,.087.2.282.282,0,0,1-.087.207.3.3,0,0,1-.414,0,.279.279,0,0,1-.082-.207.247.247,0,0,1,.082-.2.3.3,0,0,1,.414,0Z" transform="translate(-84.318 -63.871)"/>
        <rect id="矩形_134" data-name="矩形 134" class="cls-2" width="0.386" height="2.492" transform="translate(16.288 1.017)"/>
      </g>
    </g>
    <text id="宇泛智能" class="cls-4" transform="translate(426 242)"><tspan x="0" y="0">宇泛智能</tspan></text>
  </g>
</svg>
