<svg xmlns="http://www.w3.org/2000/svg" width="42" height="28" viewBox="0 0 42 28">
  <defs>
    <style>
      .cls-1 {
        fill: #fff;
      }
    </style>
  </defs>
  <g id="组_182" data-name="组 182" transform="translate(-79.395 200.81)">
    <path id="路径_797" data-name="路径 797" class="cls-1" d="M85.576-200.81c.638.064,1.279.128,1.917.188a32.757,32.757,0,0,0-5.178,12.608,12.379,12.379,0,0,0,1.2,8.185,6.236,6.236,0,0,0,5.579,2.789,17.474,17.474,0,0,0,9.148-3.549c5.688-4.148,9.027-10.986,10.244-17.92q3,.258,6,.524c-1.87,10.482-8.829,20.078-18.532,24.11-3.755,1.247-8.141,1.686-11.737-.288-3.188-1.77-4.661-5.595-4.825-9.156v-.607C79.562-190.072,82.268-195.815,85.576-200.81Z" transform="translate(0 0)"/>
    <path id="路径_798" data-name="路径 798" class="cls-1" d="M98.9-197.351q.491-.775.985-1.549c3.595,5.877,8.057,11.427,14.1,14.94q-.964,1.058-1.987,2.069C106.284-185.7,102.169-191.4,98.9-197.351Z" transform="translate(-11.957 -1.157)"/>
    <path id="路径_799" data-name="路径 799" class="cls-1" d="M156.773-191.55c2.811,2.96,5.452,6.421,6.189,10.533a6.213,6.213,0,0,1-2.811,6.488c-3.828,2.412-8.735,1.778-12.756.193q1.254-1.242,2.444-2.546a8.633,8.633,0,0,0,5.893-.875,3.375,3.375,0,0,0,1.671-2.83c.079-2.136-1.009-4.064-2.042-5.858A44.661,44.661,0,0,0,156.773-191.55Z" transform="translate(-41.685 -5.61)"/>
    <g id="组_181" data-name="组 181" transform="translate(103.565 -176.482)">
      <path id="路径_800" data-name="路径 800" class="cls-1" d="M141.953-139.966h.388v2.086a1.1,1.1,0,0,0,.222.752.941.941,0,0,0,.738.265.949.949,0,0,0,.738-.265,1.127,1.127,0,0,0,.223-.752v-2.086h.388v2.081a1.4,1.4,0,0,1-.336,1.008,1.35,1.35,0,0,1-1.012.355,1.344,1.344,0,0,1-1.008-.35,1.4,1.4,0,0,1-.341-1.012Z" transform="translate(-141.953 140.004)"/>
      <path id="路径_801" data-name="路径 801" class="cls-1" d="M167.7-139.966h.388v2.086a1.1,1.1,0,0,0,.222.752.941.941,0,0,0,.738.265.95.95,0,0,0,.738-.265,1.129,1.129,0,0,0,.222-.752v-2.086h.388v2.081a1.4,1.4,0,0,1-.336,1.008,1.35,1.35,0,0,1-1.012.355,1.344,1.344,0,0,1-1.008-.35,1.4,1.4,0,0,1-.341-1.012Z" transform="translate(-157.553 140.004)"/>
      <path id="路径_802" data-name="路径 802" class="cls-1" d="M152.394-136.618h-.388V-138.7a1.1,1.1,0,0,0-.222-.752.941.941,0,0,0-.738-.265.95.95,0,0,0-.738.265,1.127,1.127,0,0,0-.222.752v2.086H149.7V-138.7a1.4,1.4,0,0,1,.336-1.008,1.35,1.35,0,0,1,1.012-.355,1.344,1.344,0,0,1,1.008.35,1.4,1.4,0,0,1,.341,1.012Z" transform="translate(-146.645 140.062)"/>
      <path id="路径_803" data-name="路径 803" class="cls-1" d="M157.929-139.79a.244.244,0,0,1,.085.2.278.278,0,0,1-.085.2.3.3,0,0,1-.2.08.3.3,0,0,1-.2-.08.276.276,0,0,1-.08-.2.242.242,0,0,1,.08-.2.276.276,0,0,1,.2-.08A.276.276,0,0,1,157.929-139.79Z" transform="translate(-151.336 139.946)"/>
      <rect id="矩形_135" data-name="矩形 135" class="cls-1" width="0.378" height="2.446" transform="translate(6.2 0.998)"/>
      <rect id="矩形_136" data-name="矩形 136" class="cls-1" width="2.389" height="0.322" transform="translate(7.231 1.599)"/>
      <path id="路径_804" data-name="路径 804" class="cls-1" d="M177.668-138.726a.963.963,0,0,0-.818-.393.885.885,0,0,0-.809.516v-1.447h-.378v3.444h.355v-.4a.855.855,0,0,0,.814.468,1.011,1.011,0,0,0,.837-.388,1.453,1.453,0,0,0,.274-.908A1.424,1.424,0,0,0,177.668-138.726Zm-.289,1.585a.683.683,0,0,1-.6.289.655.655,0,0,1-.572-.284,1.112,1.112,0,0,1-.184-.667v-.047a1.059,1.059,0,0,1,.208-.691.626.626,0,0,1,.534-.265.692.692,0,0,1,.6.284,1.123,1.123,0,0,1,.184.686A1.241,1.241,0,0,1,177.379-137.141Z" transform="translate(-162.374 140.055)"/>
      <path id="路径_805" data-name="路径 805" class="cls-1" d="M182.746-139.79a.244.244,0,0,1,.085.2.278.278,0,0,1-.085.2.3.3,0,0,1-.2.08.3.3,0,0,1-.2-.08.276.276,0,0,1-.08-.2.242.242,0,0,1,.08-.2.275.275,0,0,1,.2-.08A.276.276,0,0,1,182.746-139.79Z" transform="translate(-166.371 139.946)"/>
      <rect id="矩形_137" data-name="矩形 137" class="cls-1" width="0.378" height="2.446" transform="translate(15.983 0.998)"/>
    </g>
  </g>
</svg>
